<?xml version="1.0" encoding="UTF-8"?>
<svg xmlns="http://www.w3.org/2000/svg" xmlns:xlink="http://www.w3.org/1999/xlink" width="119.0pt" height="53.0pt" viewBox="0 0 119.0 53.0" version="1.1">

<defs>
<polycosvg ratio="1.000000" offsetx="0.000000" offsety="0.000000" />
</defs><g>
<path style="fill:rgb(17.647058%,78.039215%,66.66667%);fill-rule:evenodd;stroke:none;" name="Path No.99" d="M 0.0 53.0 C 39.67675 53.0 79.32858 53.0 119.0 53.0 C 119.0 35.33519 119.0 17.659477 119.0 0.0 C 79.32374 0.0 39.671413 0.0 0.0 0.0 C 0.0 17.658127 0.0 35.347794 0.0 53.0 Z M 21.0 16.4375 C 21.359118 16.850351 21.647789 16.7395 22.0 16.5 C 21.649626 16.227404 21.331888 16.111198 21.0 16.4375 Z M 25.5 33.0 C 25.607647 32.111813 24.749878 31.28489 24.305702 30.449598 C 23.60787 29.087873 23.1801 27.586056 23.399784 26.05308 C 23.477291 24.827532 23.82902 23.295897 23.5 22.0 C 23.01921 22.862972 22.438633 23.982128 22.06336 24.989927 C 20.744076 27.587982 23.300072 30.80466 25.5 33.0 Z M 24.0 15.25 C 24.49667 15.871132 25.262907 16.058964 26.0 16.0 C 26.025095 16.701704 26.107315 17.399559 26.5 18.0 C 27.338924 17.161076 28.168476 16.331524 29.0 15.5 C 27.670374 14.824056 25.691444 15.032328 24.0 15.0 C 24.0 15.071759 24.0 15.178241 24.0 15.25 Z M 25.0 19.4375 C 25.359118 19.850351 25.647789 19.7395 26.0 19.5 C 25.649626 19.227404 25.331888 19.111198 25.0 19.4375 Z M 27.0 33.3125 C 27.464512 33.901054 28.439413 33.86899 29.199957 33.802708 C 30.039125 33.711987 31.088951 33.59849 32.0 33.5 C 30.333014 33.339966 28.66849 33.106144 27.0 33.0 C 27.0 33.116665 27.0 33.220833 27.0 33.3125 Z M 34.0 32.45703 C 34.495872 32.910164 35.15687 32.27994 35.541096 31.958902 C 36.053513 31.443794 36.698788 30.682354 36.5 30.0 C 35.76013 30.904037 34.698948 31.52712 34.0 32.45703 Z M 37.5 29.0 C 38.141754 27.025995 38.83992 25.080133 39.0 23.0 C 40.043747 23.006844 41.055054 22.953775 42.0 22.5 C 40.963448 21.52197 39.993614 20.496166 39.253597 19.277992 C 38.536583 18.289684 38.216312 16.827976 37.5 16.0 C 36.938282 16.736334 37.06582 17.936995 37.024067 18.910906 C 37.102695 21.89232 36.722687 25.807968 37.5 29.0 Z M 42.0 23.4375 C 42.35912 23.850351 42.64779 23.7395 43.0 23.5 C 42.649624 23.227404 42.33189 23.111198 42.0 23.4375 Z M 75.0 32.625 C 76.23718 32.67695 77.1999 30.978148 77.531555 29.747763 C 77.751274 29.173143 77.79132 28.551882 77.5 28.0 C 76.82669 29.358208 76.09344 31.204025 75.0 32.625 Z M 78.0 25.75 C 78.28205 25.983252 78.49563 26.322954 78.789505 26.44833 C 79.09121 26.119299 79.41611 25.815224 79.77984 25.57453 C 81.369835 24.526297 83.05911 23.637066 85.0 23.5 C 83.991005 23.331835 83.00092 23.16682 82.0 23.0 C 82.015015 21.654263 81.93219 20.279915 81.5 19.0 C 80.3797 21.320026 79.2664 23.5537 78.0 25.75 Z M 82.5 19.0 C 83.05031 18.199823 83.36785 17.273872 83.76049 16.39272 C 84.06945 15.634697 84.63171 14.747627 84.5 14.0 C 83.86686 14.623393 83.20619 15.566161 82.79941 16.451729 C 82.375374 17.2695 81.94455 18.166103 82.5 19.0 Z M 85.0 24.25 C 85.77603 25.70132 86.07681 27.32114 86.006134 28.958323 C 86.01057 30.433104 86.56471 32.511036 88.0 32.75 C 87.41417 31.000362 87.10788 29.232445 86.94508 27.403517 C 86.79912 26.219593 86.23918 24.60887 85.0 24.0 C 85.0 24.07176 85.0 24.17824 85.0 24.25 Z M 89.0 33.3125 C 89.366875 34.045143 90.41897 33.806076 91.060234 33.679 C 91.36975 33.62005 91.69963 33.557213 92.0 33.5 C 91.00301 33.328724 90.00953 33.085724 89.0 33.0 C 89.0 33.116665 89.0 33.220833 89.0 33.3125 Z M 93.0 32.375 C 93.86513 32.683075 94.80758 31.595518 95.41588 30.852596 C 96.4992 29.522541 96.97592 27.642883 96.5 26.0 C 95.924286 28.441525 94.86992 30.685095 93.0 32.375 Z " />

<path style="fill:rgb(17.647058%,78.039215%,47.843136%);fill-rule:evenodd;stroke:none;" name="Path No.100" d="M 21.5 30.0 C 22.264656 28.385618 22.068678 25.800625 21.5 24.0 C 19.378277 25.629848 19.695385 28.485933 21.5 30.0 Z " />

<path style="fill:rgb(0.0%,0.0%,26.666668%);fill-rule:evenodd;stroke:none;" name="Path No.101" d="M 38.0 26.0 C 40.190853 26.209515 40.49059 24.524103 40.767063 22.931747 C 40.84495 22.620195 40.924046 22.303816 41.0 22.0 C 40.110546 22.0 38.962933 22.0 38.0 22.0 C 38.0 23.3344 38.0 24.66699 38.0 26.0 Z " />

<path style="fill:rgb(0.0%,0.0%,0.0%);fill-rule:evenodd;stroke:none;" name="Path No.102" d="M 19.0 15.125 C 19.427193 15.945656 19.949755 16.956202 20.0 18.0 C 21.718039 18.03797 23.349447 17.19113 25.0 17.5 C 22.811836 20.196209 21.090769 23.543423 21.237085 27.11 C 21.262508 30.82246 24.020836 34.101654 27.706696 34.605995 C 30.438946 35.149414 33.0805 34.398655 35.595757 33.437 C 36.231316 32.515068 37.556484 31.733992 38.003532 30.53785 C 38.527275 29.613905 38.806286 28.590939 39.044525 27.577208 C 39.398758 26.17633 39.31361 24.535656 39.5 23.0 C 40.693703 24.193703 42.201363 25.701365 43.5 27.0 C 44.185204 26.03909 44.651234 24.562101 45.0 23.335205 C 43.51912 22.148132 41.91806 20.386658 40.686646 18.743282 C 39.58408 17.175583 38.76796 15.439576 37.5 14.0 C 36.77733 14.669649 35.911385 15.14724 35.0 15.5 C 36.06296 17.254257 35.91148 19.333199 35.975243 21.313343 C 35.98896 24.109186 36.226322 28.211359 33.675125 30.282932 C 29.992367 34.327553 23.147346 29.962683 24.893955 25.414661 C 25.52522 20.902863 28.882408 17.556046 32.0 14.5 C 31.574743 14.081477 31.05419 13.520237 30.671875 13.0 C 27.272861 13.982494 22.818682 14.578081 19.0 15.0 C 19.0 15.03588 19.0 15.08912 19.0 15.125 Z M 40.0 17.0 C 40.59712 17.0 41.350536 17.0 42.0 17.0 C 41.91215 14.861218 41.406113 11.794599 39.0 12.0 C 39.10365 13.534489 40.115017 15.295162 40.0 17.0 Z M 42.0 12.375 C 42.671818 13.489751 43.453926 15.012428 44.5 16.0 C 45.51784 14.358601 44.89797 12.169082 43.5 11.0 C 43.074566 11.431669 42.588238 11.829959 42.0 12.0 C 42.0 12.12132 42.0 12.26368 42.0 12.375 Z M 73.0 33.625 C 73.88698 34.439205 75.68666 34.50294 77.0 35.0 C 77.34132 33.19334 78.362 31.099813 79.25215 29.318893 C 79.86267 27.739185 81.512115 26.009306 83.0 25.0 C 83.564575 25.302431 84.04808 25.622536 84.5 26.0 C 85.54573 28.659704 84.51439 32.928432 87.554825 33.842846 C 90.22999 35.144886 93.72582 34.561882 95.70173 32.32175 C 97.64392 30.500885 97.759735 27.698812 99.0 25.5 C 97.7787 24.734282 96.40082 24.283623 95.0 24.0 C 95.12071 27.709991 92.99563 31.786758 89.0 32.0 C 88.44057 29.959625 88.23516 27.813728 87.61543 25.795721 C 87.60674 23.457558 84.858665 22.161942 83.0 22.0 C 83.24631 20.541304 84.022705 18.88247 84.79379 17.484999 C 85.39659 16.072472 86.11581 14.738802 87.0 13.5 C 85.7787 12.734282 84.40082 12.283623 83.0 12.0 C 82.67162 13.854206 81.489655 15.949388 80.60805 17.778 C 79.20507 20.52803 77.856155 23.292992 76.73415 26.170307 C 76.18325 27.52499 75.53931 28.848564 74.90522 30.163906 C 74.62618 30.749477 74.34409 31.329878 74.10889 31.932676 C 73.81811 32.551075 73.15334 32.6854 73.0 33.625 Z " />
</g>
</svg>
