<?xml version="1.0" encoding="UTF-8"?>
<svg xmlns="http://www.w3.org/2000/svg" xmlns:xlink="http://www.w3.org/1999/xlink" width="160.0pt" height="47.0pt" viewBox="0 0 160.0 47.0" version="1.1">

<defs>
<polycosvg ratio="1.000000" offsetx="0.000000" offsety="0.000000" />
</defs><g>
<path style="fill:rgb(54.901962%,90.588234%,16.078432%);fill-rule:evenodd;stroke:none;" name="Path No.4" d="M 0.0 47.0 C 53.343296 47.0 106.66737 47.0 160.0 47.0 C 160.0 31.331337 160.0 15.66333 160.0 0.0 C 106.66186 0.0 53.327477 0.0 0.0 0.0 C 0.0 15.664933 0.0 31.340677 0.0 47.0 Z M 12.0 29.625 C 12.911208 29.850441 13.721755 29.171282 14.459918 29.014793 C 16.625652 28.618746 18.807035 28.177765 21.0 28.0 C 20.843292 25.364407 19.55545 19.129095 23.233181 17.348822 C 23.628946 16.94729 24.075718 16.666534 24.630133 16.663551 C 24.641783 15.98748 25.33862 15.404563 25.81446 14.8824215 C 26.691677 14.235477 26.87726 12.588232 27.34801 11.220294 C 27.846825 10.048269 27.810085 9.15655 27.5 8.0 C 26.348995 9.78682 26.13271 11.940187 26.0 14.0 C 23.753649 13.923477 21.982336 12.6308975 20.5 11.0 C 18.745174 13.20213 17.083372 12.905841 15.5 11.0 C 13.001623 13.435955 12.940489 17.020096 13.000139 20.33414 C 13.003577 24.003826 13.170725 26.502743 12.0 29.625 Z M 16.0 9.25 C 16.343748 10.186586 17.673487 9.98988 18.445242 10.0 C 18.604477 10.0 18.840763 10.0 19.0 10.0 C 19.0 9.394116 19.0 8.65726 19.0 8.0 C 17.855024 7.915259 16.797325 8.462367 16.0 9.25 Z M 16.0 22.0 C 16.894854 22.0 18.026342 22.0 19.0 22.0 C 19.0 19.655087 19.0 17.334248 19.0 15.0 C 18.105146 15.0 16.973658 15.0 16.0 15.0 C 16.0 17.338434 16.0 19.664112 16.0 22.0 Z M 23.0 28.25 C 23.420507 29.238237 24.371286 28.82456 25.031282 28.40062 C 25.387691 28.123343 25.692125 27.81954 26.0 27.5 C 25.087112 27.291958 24.047758 28.148357 23.0 28.0 C 23.0 28.07176 23.0 28.17824 23.0 28.25 Z M 26.0 25.625 C 26.84393 25.615519 27.449652 25.139196 28.079058 24.720116 C 28.88647 24.25677 30.073864 23.878532 31.0 23.5 C 29.692118 21.332762 29.368235 17.834463 28.5 15.0 C 27.664865 18.626955 28.07404 22.499245 26.0 25.625 Z M 31.0 25.4375 C 31.359118 25.850351 31.647789 25.7395 32.0 25.5 C 31.649626 25.227404 31.331888 25.111198 31.0 25.4375 Z M 33.5 15.0 C 33.76542 13.743869 34.12154 12.472764 35.0 11.5 C 34.384396 11.0818 33.684517 10.978055 33.0 11.0 C 32.938698 12.35425 33.119133 13.70124 33.5 15.0 Z M 67.0 14.4375 C 67.359116 14.85035 67.64779 14.7395 68.0 14.5 C 67.64963 14.227404 67.33189 14.111199 67.0 14.4375 Z M 68.0 23.25 C 68.76019 24.07831 69.961395 23.934158 71.0 24.0 C 71.16665 25.999756 71.33345 28.001427 71.5 30.0 C 71.686195 27.104115 71.99307 24.877148 74.0 23.5 C 71.90694 21.20727 71.983505 17.9703 72.0 15.0 C 72.874435 15.0 74.04676 15.0 75.0 15.0 C 75.0 14.402883 75.0 13.649463 75.0 13.0 C 74.070305 12.862953 73.22025 12.581027 72.31738 12.473173 C 72.26404 11.684474 71.661514 10.929845 71.5 10.0 C 71.08908 12.457388 70.92564 14.928119 70.537735 17.379753 C 70.38802 18.575129 69.979416 19.693535 69.79594 20.86471 C 69.38575 21.95121 68.694244 22.508915 68.0 23.25 Z M 75.0 11.4375 C 75.359116 11.85035 75.64779 11.7395 76.0 11.5 C 75.64963 11.227404 75.33189 11.111199 75.0 11.4375 Z M 77.0 25.4375 C 77.359116 25.850351 77.64779 25.7395 78.0 25.5 C 77.64963 25.227404 77.33189 25.111198 77.0 25.4375 Z M 80.0 12.457031 C 80.6324 13.2969265 81.738144 14.142205 82.5 15.0 C 82.85505 13.744816 80.830154 12.480962 80.0 12.0 C 80.0 12.152344 80.0 12.3046875 80.0 12.457031 Z M 81.0 24.25 C 82.062256 25.343843 84.35252 24.739714 86.0 25.0 C 86.15036 26.50358 86.33673 28.367321 86.5 30.0 C 86.72114 27.56365 86.93492 24.65783 89.0 23.5 C 86.793976 22.355497 86.96388 19.787155 86.79228 17.51669 C 86.68668 15.006727 86.60119 12.505552 86.5 10.0 C 86.35647 14.673719 86.092 19.335306 86.0 24.0 C 84.52586 24.168737 82.56058 23.790117 81.0 24.25 Z M 120.0 18.25 C 120.75181 19.122444 121.66734 18.937532 122.64075 18.938189 C 125.430885 19.027449 128.22179 18.993155 131.0 19.0 C 131.0 21.989946 131.0 25.022354 131.0 28.0 C 128.33414 28.0 125.662834 28.0 123.0 28.0 C 122.83335 26.000244 122.66655 23.998573 122.5 22.0 C 122.41842 24.360506 121.82952 27.483398 122.5 30.0 C 124.731575 28.66366 128.34782 29.188042 131.3 29.0 C 134.27673 29.155064 138.0146 28.714895 140.5 30.0 C 141.1571 27.686699 140.63193 24.571695 140.5 22.0 C 140.33336 23.999756 140.16655 26.001427 140.0 28.0 C 137.33414 28.0 134.66283 28.0 132.0 28.0 C 132.0 25.010054 132.0 21.977646 132.0 19.0 C 135.67062 18.833153 139.34152 18.666294 143.0 18.5 C 139.32938 18.333153 135.65848 18.166294 132.0 18.0 C 132.0 16.207138 132.0 13.947878 132.0 12.0 C 135.35168 11.832416 138.6573 11.667134 142.0 11.5 C 136.6719 11.2018175 131.33426 10.947121 126.0 11.0 C 126.02817 10.069173 125.8916 8.934317 125.5 8.0 C 124.993225 9.036757 124.301636 10.319381 123.71125 11.417098 C 122.89699 12.459664 122.58605 12.882408 122.5 14.0 C 124.795265 11.911309 128.03592 11.969807 131.0 12.0 C 131.0 13.792863 131.0 16.052122 131.0 18.0 C 129.16911 18.004606 127.37132 17.994368 125.55522 18.00308 C 123.774605 18.179811 121.5836 17.786804 120.0 18.25 Z " />

<path style="fill:rgb(47.058823%,90.588234%,15.6862755%);fill-rule:evenodd;stroke:none;" name="Path No.5" d="M 15.0 28.0 C 16.677835 28.0 18.330612 28.0 20.0 28.0 C 20.221645 23.784756 16.824797 19.70104 17.75 15.0 C 16.9437 15.0 15.874 15.0 15.0 15.0 C 15.0 19.340408 15.0 23.66935 15.0 28.0 Z " />

<path style="fill:rgb(12.549021%,50.588238%,13.333334%);fill-rule:evenodd;stroke:none;" name="Path No.6" d="M 21.0 18.0 C 22.011312 18.014446 23.092632 17.89759 23.903727 17.234446 C 24.98797 16.329647 25.12418 14.671111 24.537935 13.463871 C 23.826227 12.081183 22.360401 11.983021 21.0 12.0 C 21.0 13.779774 21.0 16.069689 21.0 18.0 Z " />

<path style="fill:rgb(0.0%,20.392157%,9.0196085%);fill-rule:evenodd;stroke:none;" name="Path No.7" d="M 14.0 28.0 C 14.930827 28.02817 16.065683 27.891602 17.0 27.5 C 15.917476 25.958714 16.189007 24.46676 16.402384 22.84195 C 16.619188 21.442184 16.3149 19.648289 17.0 18.5 C 16.012041 18.03205 14.991726 17.97581 14.0 18.0 C 14.0 21.340057 14.0 24.671492 14.0 28.0 Z " />

<path style="fill:rgb(21.960785%,0.0%,0.0%);fill-rule:evenodd;stroke:none;" name="Path No.8" d="M 18.0 22.375 C 18.259369 22.835228 18.643658 23.168657 19.0 23.5 C 17.99894 24.707247 18.488323 26.099157 19.5 27.0 C 20.499111 25.858555 20.856482 23.725325 21.0 22.0 C 20.114912 22.0 18.958626 22.0 18.0 22.0 C 18.0 22.121319 18.0 22.263681 18.0 22.375 Z M 26.0 15.25 C 26.905167 16.696852 27.149708 18.313599 27.0 20.0 C 27.597118 20.0 28.350538 20.0 29.0 20.0 C 29.0 18.334663 29.0 16.660004 29.0 15.0 C 28.107342 15.0 26.96791 15.0 26.0 15.0 C 26.0 15.071759 26.0 15.178241 26.0 15.25 Z " />

<path style="fill:rgb(39.215687%,36.078434%,0.0%);fill-rule:evenodd;stroke:none;" name="Path No.9" d="M 16.5 12.0 C 17.07861 11.508107 17.750813 11.137276 18.5 11.0 C 18.722803 13.028671 19.8727 14.756874 22.0 15.0 C 22.036135 14.03718 22.343794 13.205155 23.0 12.5 C 22.14779 11.627658 21.065435 10.470694 19.89826 9.814816 C 18.726646 9.109363 17.32641 8.956595 16.0 9.0 C 16.011164 10.035312 16.174887 11.024136 16.5 12.0 Z " />

<path style="fill:rgb(54.901962%,90.588234%,13.333334%);fill-rule:evenodd;stroke:none;" name="Path No.10" d="M 17.0 15.375 C 17.42496 16.400108 17.446127 17.565643 17.49833 18.508562 C 17.517286 19.582521 17.681776 20.647402 17.0 21.5 C 18.012873 21.888262 19.004242 22.01476 20.0 22.0 C 20.0 19.672596 20.0 17.316736 20.0 15.0 C 19.122433 15.0 17.951107 15.0 17.0 15.0 C 17.0 15.12132 17.0 15.26368 17.0 15.375 Z " />

<path style="fill:rgb(0.0%,36.078434%,11.372549%);fill-rule:evenodd;stroke:none;" name="Path No.11" d="M 13.0 15.0 C 15.271286 15.165954 16.687906 13.985998 18.0 12.5 C 17.400549 11.767077 17.048922 10.943919 17.0 10.0 C 14.2025795 10.20365 12.814667 12.64038 13.0 15.0 Z " />

<path style="fill:rgb(47.058823%,50.588238%,3.9215689%);fill-rule:evenodd;stroke:none;" name="Path No.12" d="M 14.0 14.375 C 14.75841 15.38146 16.742954 14.805258 18.0 15.0 C 18.0 14.105146 18.0 12.973657 18.0 12.0 C 16.575455 12.061114 14.950718 13.179421 14.0 14.375 Z " />

<path style="fill:rgb(30.588236%,77.64706%,15.6862755%);fill-rule:evenodd;stroke:none;" name="Path No.13" d="M 18.0 15.0 C 19.182928 14.951268 20.81817 15.137775 22.0 14.5 C 20.864437 13.310637 19.69097 11.875863 18.0 12.0 C 18.0 12.883537 18.0 14.037735 18.0 15.0 Z " />

<path style="fill:rgb(30.588236%,20.392157%,0.0%);fill-rule:evenodd;stroke:none;" name="Path No.14" d="M 18.0 18.25 C 18.665945 19.283173 18.947859 20.60689 18.0 21.5 C 18.9976 21.88875 20.019516 22.01427 21.0 22.0 C 21.0 20.823263 21.0 19.27624 21.0 18.0 C 20.107342 18.0 18.96791 18.0 18.0 18.0 C 18.0 18.07176 18.0 18.17824 18.0 18.25 Z " />

<path style="fill:rgb(47.058823%,77.64706%,9.0196085%);fill-rule:evenodd;stroke:none;" name="Path No.15" d="M 72.0 14.0 C 72.89485 14.0 74.026344 14.0 75.0 14.0 C 74.98752 13.096678 75.0205 11.869364 74.5 11.0 C 73.69075 11.789206 72.82884 11.409326 72.0 11.0 C 72.0 11.999116 72.0 13.003931 72.0 14.0 Z " />

<path style="fill:rgb(39.215687%,50.588238%,3.9215689%);fill-rule:evenodd;stroke:none;" name="Path No.16" d="M 72.0 16.0 C 72.90443 16.0 74.03157 16.0 75.0 16.0 C 75.0 14.986722 75.0 13.997278 75.0 13.0 C 74.110115 13.0 72.968216 13.0 72.0 13.0 C 72.0 13.889889 72.0 15.031785 72.0 16.0 Z " />

<path style="fill:rgb(47.058823%,64.70589%,6.2745104%);fill-rule:evenodd;stroke:none;" name="Path No.17" d="M 72.5 15.0 C 73.169914 14.427901 73.962105 14.31771 74.5 15.0 C 74.887276 14.0440035 75.05527 12.916174 74.5 12.0 C 73.67565 12.625838 72.77152 12.465771 72.0 12.0 C 72.00743 12.897623 72.013 14.118595 72.5 15.0 Z " />

<path style="fill:rgb(0.0%,0.0%,0.0%);fill-rule:evenodd;stroke:none;" name="Path No.18" d="M 10.0 14.34375 C 10.542895 14.932145 11.29079 15.022492 12.0 15.0 C 12.1062 20.362526 12.055993 25.724586 11.0 31.0 C 15.56227 30.555542 20.670853 28.012447 24.5 31.0 C 26.309965 29.095768 27.693945 26.90136 29.5 25.0 C 30.811722 27.27531 32.566837 29.172009 34.5 31.0 C 34.976032 30.524881 35.541862 29.911552 36.0 29.34375 C 35.549595 27.969791 34.225266 26.677076 33.378494 25.367317 C 32.202755 23.42261 31.27869 21.316608 30.776197 19.101696 C 30.10095 16.711382 30.242062 14.712534 28.0 14.0 C 28.0 13.402883 28.0 12.649463 28.0 12.0 C 29.18758 12.0 30.710728 12.0 32.0 12.0 C 32.028496 13.58986 31.848503 15.1520605 31.0 16.5 C 31.447584 16.947584 32.014732 17.51473 32.5 18.0 C 33.01831 18.0 33.525604 18.0 34.0 18.0 C 34.44456 15.569085 35.8738 12.736225 36.0 10.0 C 33.916492 10.0 31.263714 10.0 29.0 10.0 C 29.0 9.125565 29.0 7.9532385 29.0 7.0 C 28.125565 7.0 26.95324 7.0 26.0 7.0 C 25.681753 8.534552 25.094244 10.438303 24.67529 12.089282 C 24.2978 13.905662 23.692204 15.604976 22.5 17.0 C 22.038935 16.010603 21.976158 14.992071 22.0 14.0 C 21.22596 13.9366255 20.569689 13.732188 19.87581 13.5829525 C 19.38099 13.60094 19.477747 12.531934 19.0 12.0 C 18.402882 12.0 17.649462 12.0 17.0 12.0 C 17.0 12.597117 17.0 13.350537 17.0 14.0 C 16.245853 14.0 15.317859 14.0 14.5 14.0 C 14.340998 12.936538 15.318918 12.336811 16.002241 11.660099 C 16.694553 10.743789 17.457392 10.33373 18.5 10.0 C 19.433723 10.938114 20.621624 12.109457 21.75 13.0 C 22.552055 12.98725 23.293697 12.859418 24.0 12.5 C 22.390587 10.853683 20.638296 9.228797 20.0 7.0 C 16.085571 6.886667 13.150215 11.627036 10.0 14.34375 Z M 20.0 21.0 C 20.0 20.402882 20.0 19.649462 20.0 19.0 C 18.32411 19.0 16.662483 19.0 15.0 19.0 C 14.938031 20.889072 16.498224 21.082664 17.885431 21.0 C 18.51512 21.0 19.318987 21.0 20.0 21.0 Z M 15.0 27.0 C 16.176737 27.0 17.72376 27.0 19.0 27.0 C 18.978008 25.756443 19.226974 24.493822 20.0 23.5 C 18.39687 22.886738 16.678686 23.012974 15.0 23.0 C 15.0 24.20104 15.0 25.694012 15.0 27.0 Z M 16.0 16.3125 C 16.36687 17.045143 17.418972 16.806076 18.060236 16.679003 C 18.369755 16.620047 18.699633 16.557213 19.0 16.5 C 18.003012 16.328724 17.009527 16.085724 16.0 16.0 C 16.0 16.116667 16.0 16.220833 16.0 16.3125 Z M 22.0 27.0 C 24.224453 26.542238 25.318954 24.33208 26.050863 22.38404 C 26.738987 20.52566 27.864971 18.178896 28.0 16.0 C 27.402882 16.0 26.649462 16.0 26.0 16.0 C 25.809704 18.26345 22.683666 18.72782 22.27762 20.55223 C 22.045755 21.446417 21.567936 22.59473 21.495235 23.647324 C 21.919523 24.517681 21.738235 25.894058 22.0 27.0 Z M 65.0 10.25 C 66.0202 12.017459 66.12834 14.001009 66.0 16.0 C 66.874435 16.0 68.04676 16.0 69.0 16.0 C 68.664406 13.986434 68.33415 12.004922 68.0 10.0 C 67.09404 10.0 65.98385 10.0 65.0 10.0 C 65.0 10.071759 65.0 10.178241 65.0 10.25 Z M 65.0 17.5 C 65.03066 18.049606 65.18602 18.557516 65.5 19.0 C 66.52783 19.0 67.88431 19.0 69.0 19.0 C 69.0 19.518309 69.0 20.025604 69.0 20.5 C 67.0752 22.589664 64.97945 25.620394 66.5 28.0 C 67.391205 27.108797 68.53238 25.967623 69.5 25.0 C 70.14059 26.698587 69.92631 29.05192 70.0 31.0 C 70.874435 31.0 72.04676 31.0 73.0 31.0 C 73.138504 29.22525 72.79282 26.825615 73.5 25.0 C 73.90379 25.1525 74.2031 25.401876 74.5925 25.46603 C 74.864204 25.330502 75.206894 25.126596 75.5 25.0 C 75.87029 25.6514 76.0095 26.314613 76.0 27.0 C 78.986015 26.486092 81.972496 26.016321 85.0 26.0 C 85.0 27.677835 85.0 29.330612 85.0 31.0 C 85.874435 31.0 87.04676 31.0 88.0 31.0 C 88.02313 28.560371 87.79654 25.688503 90.0 25.0 C 89.95641 24.164433 89.660835 23.435867 89.50167 22.640862 C 87.31042 19.824474 88.20297 13.608717 88.0 9.0 C 87.125565 9.0 85.95324 9.0 85.0 9.0 C 85.02019 10.735415 84.98181 12.371457 84.5 14.0 C 83.13965 12.857312 81.724174 10.938105 80.0 10.0 C 79.11037 10.494718 78.442665 11.174292 78.0 12.0 C 78.86963 13.712247 81.030945 15.288623 82.5 17.0 C 83.108246 16.391754 83.84252 15.657479 84.5 15.0 C 85.289894 17.160263 84.81084 20.324713 85.0 23.0 C 84.402885 23.0 83.64946 23.0 83.0 23.0 C 82.23773 21.881435 82.6657 20.527706 81.50878 19.390553 C 80.64241 18.144136 79.57087 17.055029 78.5 16.0 C 77.891754 16.608246 77.15748 17.34252 76.5 18.0 C 75.46779 17.117476 74.2382 16.666227 73.0 16.5 C 73.98718 16.318142 75.00599 16.121424 76.0 16.0 C 76.33541 13.987529 76.66511 12.009343 77.0 10.0 C 76.125565 10.0 74.95324 10.0 74.0 10.0 C 73.84964 11.50358 73.66327 13.367321 73.5 15.0 C 73.305084 12.996898 73.09004 11.009135 73.0 9.0 C 72.125565 9.0 70.95324 9.0 70.0 9.0 C 70.0 11.66587 70.0 14.337166 70.0 17.0 C 69.136246 17.004984 68.02223 17.012539 67.0858 17.042908 C 66.38544 17.04994 65.592476 16.943487 65.0 17.5 Z M 81.0 22.5 C 80.00448 21.519386 78.84192 20.166868 77.43407 19.51657 C 76.0448 18.897102 74.46712 19.009216 73.0 19.0 C 73.42224 22.226574 77.29758 24.959063 80.09008 23.200377 C 80.413445 22.998198 80.72791 22.746258 81.0 22.5 Z M 119.0 15.375 C 119.52798 16.03125 120.265854 16.305614 121.0 16.5 C 120.51615 16.961542 119.34019 17.324581 119.3282 17.984226 C 119.13329 18.645828 119.07933 19.329372 119.0 20.0 C 122.67144 20.0 126.32885 20.0 130.0 20.0 C 130.0 22.08351 130.0 24.736286 130.0 27.0 C 128.20714 27.0 125.947876 27.0 124.0 27.0 C 124.0 25.207138 124.0 22.947878 124.0 21.0 C 123.125565 21.0 121.95324 21.0 121.0 21.0 C 121.0 24.326405 121.0 27.673628 121.0 31.0 C 127.92514 29.686213 135.08458 29.68621 142.0 31.0 C 142.0 27.673595 142.0 24.326372 142.0 21.0 C 141.12556 21.0 139.95323 21.0 139.0 21.0 C 139.0 22.792862 139.0 25.052122 139.0 27.0 C 137.20714 27.0 134.94788 27.0 133.0 27.0 C 133.0 24.91649 133.0 22.263714 133.0 20.0 C 136.67145 20.0 140.32884 20.0 144.0 20.0 C 144.0 19.125565 144.0 17.95324 144.0 17.0 C 140.32855 17.0 136.67116 17.0 133.0 17.0 C 133.0 15.81242 133.0 14.289272 133.0 13.0 C 136.3264 13.0 139.67363 13.0 143.0 13.0 C 143.0 12.125565 143.0 10.9532385 143.0 10.0 C 140.18216 10.0 137.41457 10.0 134.6 10.0 C 132.36412 9.78595 129.32237 10.276443 127.0 9.5 C 127.020226 9.017019 127.475555 8.355327 127.17336 8.065966 C 126.93232 7.7181025 126.54462 7.3454213 126.25 7.0 C 125.57643 7.0 124.732994 7.0 124.0 7.0 C 123.4587 9.945653 120.97926 13.008879 119.0 15.375 Z M 122.0 16.3125 C 122.85957 17.131742 124.56354 16.895033 125.87921 17.0 C 127.25393 17.0 128.62537 17.0 130.0 17.0 C 130.0 15.822648 130.0 14.279044 130.0 13.0 C 128.54498 13.004812 126.52092 12.849609 125.109375 13.734461 C 124.10515 14.387609 122.91487 15.396598 122.0 16.3125 Z " />
</g>
</svg>
