<?xml version="1.0" encoding="UTF-8"?>
<svg xmlns="http://www.w3.org/2000/svg" xmlns:xlink="http://www.w3.org/1999/xlink" width="237.0pt" height="53.0pt" viewBox="0 0 237.0 53.0" version="1.1">

<defs>
<polycosvg ratio="1.000000" offsetx="0.000000" offsety="0.000000" />
</defs><g>
<path style="fill:rgb(45.098038%,23.137255%,58.823532%);fill-rule:evenodd;stroke:none;" name="Path No.19" d="M 0.0 53.0 C 79.0 53.0 158.0 53.0 237.0 53.0 C 237.0 35.33519 237.0 17.659477 237.0 0.0 C 158.00253 0.0 78.98146 0.0 0.0 0.0 C 0.0 17.658127 0.0 35.347794 0.0 53.0 Z M 27.0 16.25 C 27.751804 17.122444 28.66734 16.937532 29.640749 16.938189 C 32.430885 17.027449 35.221783 16.993155 38.0 17.0 C 37.799267 19.483656 35.904247 22.077953 34.04697 24.036867 C 32.13638 25.856365 29.527 28.147259 27.0 29.5 C 27.495756 29.686014 28.091875 29.89898 28.65625 30.0 C 30.777813 27.596346 34.44645 25.109394 38.0 25.0 C 38.16673 29.001541 38.333336 33.000015 38.5 37.0 C 38.66697 32.992702 38.833572 28.994228 39.0 25.0 C 40.34019 24.832476 41.668198 24.666475 43.0 24.5 C 41.65981 24.332476 40.331802 24.166475 39.0 24.0 C 39.003242 21.620455 39.397152 19.292582 40.0 17.0 C 43.351692 16.832415 46.65731 16.667135 50.0 16.5 C 43.210575 16.361435 34.35673 15.462672 27.0 16.25 Z M 43.0 25.5 C 43.82433 26.453503 45.137318 27.425367 46.281845 28.176777 C 47.236652 28.90849 48.66968 29.80144 50.0 29.5 C 47.6659 28.615875 45.39449 26.220188 43.0 25.0 C 43.0 25.143518 43.0 25.356482 43.0 25.5 Z M 80.0 23.5 C 80.152176 23.956518 80.3347 24.504099 80.5 25.0 C 81.58264 24.23104 82.78875 23.981762 84.0 24.0 C 83.99676 26.379545 83.60285 28.707418 83.0 31.0 C 84.3482 30.997898 85.6983 30.831413 87.0 30.5 C 84.41997 29.234243 85.229576 25.098675 85.0 22.0 C 87.446075 21.725016 90.24893 19.989197 93.0 20.0 C 92.94397 22.046886 92.51564 24.027754 92.0 26.0 C 92.67376 26.077614 93.45349 26.190962 94.13457 26.423729 C 94.66417 26.315538 94.59881 26.614422 94.69574 26.990288 C 94.95027 27.338623 95.24338 27.675608 95.5 28.0 C 96.689125 26.622622 97.99742 24.529776 100.0 24.0 C 100.0 22.81242 100.0 21.289272 100.0 20.0 C 100.874435 20.0 102.04676 20.0 103.0 20.0 C 103.0 19.402882 103.0 18.649462 103.0 18.0 C 102.094 16.693987 100.79554 15.860746 99.5 15.0 C 98.98207 16.61129 99.010895 18.33015 99.0 20.0 C 98.125565 20.0 96.95324 20.0 96.0 20.0 C 96.0 19.125565 96.0 17.95324 96.0 17.0 C 93.63053 16.997755 92.54459 16.763483 91.5 15.0 C 90.18107 17.732439 87.55274 18.006086 85.0 18.0 C 85.0 17.125565 85.0 15.9532385 85.0 15.0 C 84.402885 15.0 83.64946 15.0 83.0 15.0 C 82.98278 16.055017 82.9526 17.093592 82.69253 18.112768 C 82.28611 20.247412 80.3058 21.344053 80.0 23.5 Z M 82.0 32.4375 C 82.359116 32.85035 82.64779 32.739502 83.0 32.5 C 82.64963 32.2274 82.33189 32.1112 82.0 32.4375 Z M 89.0 33.4375 C 89.359116 33.85035 89.64779 33.739502 90.0 33.5 C 89.64963 33.2274 89.33189 33.1112 89.0 33.4375 Z M 93.5 35.0 C 93.794556 34.35721 93.984505 33.70184 94.0 33.0 C 93.10621 33.081524 92.925545 33.79694 93.16667 34.481335 C 93.291115 34.67497 93.40222 34.84786 93.5 35.0 Z M 97.0 33.4375 C 97.359116 33.85035 97.64779 33.739502 98.0 33.5 C 97.64963 33.2274 97.33189 33.1112 97.0 33.4375 Z M 137.5 34.0 C 137.54309 33.14412 137.15488 32.08147 137.04398 31.138397 C 137.00352 30.069267 136.89043 28.991154 136.5 28.0 C 134.52722 29.52338 135.04106 31.45105 136.36566 32.834545 C 136.6919 33.198784 137.12636 33.629833 137.5 34.0 Z M 137.0 17.25 C 140.29688 19.97278 146.44518 15.610554 148.5 20.0 C 149.92195 18.890938 152.10736 17.991457 154.0 17.5 C 151.09143 16.919512 148.1188 17.02265 145.1788 17.0 C 143.63086 16.997671 142.08578 16.999115 140.54774 17.009644 C 139.49908 17.093601 138.08981 16.894833 137.0 17.25 Z M 137.0 27.4375 C 137.35912 27.850351 137.64778 27.7395 138.0 27.5 C 137.64963 27.227404 137.3319 27.111198 137.0 27.4375 Z M 140.0 34.3125 C 140.77975 35.052517 141.89015 34.799892 142.88553 34.87983 C 145.92966 34.783665 148.95683 34.612377 152.0 34.5 C 150.02303 34.41497 147.54292 34.308296 145.4061 34.216393 C 143.80281 34.280064 141.7025 33.855595 140.0 34.3125 Z M 153.0 33.4375 C 153.35912 33.85035 153.64778 33.739502 154.0 33.5 C 153.64963 33.2274 153.3319 33.1112 153.0 33.4375 Z M 188.0 31.625 C 189.4213 32.928947 190.74825 34.238857 192.5 35.0 C 194.1867 33.329445 195.88525 31.620224 197.08275 29.559116 C 198.43794 27.52811 198.88638 25.766413 201.0 25.0 C 201.0 22.010054 201.0 18.977646 201.0 16.0 C 197.64111 16.043228 194.34007 16.309887 191.0 16.5 C 193.66838 16.666773 196.3374 16.833588 199.0 17.0 C 199.0 19.08351 199.0 21.736286 199.0 24.0 C 197.6518 24.002102 196.3017 24.168587 195.0 24.5 C 195.46683 25.000776 196.26105 25.207273 196.74393 25.610506 C 196.70721 26.442934 196.58144 27.50625 196.30382 28.372253 C 195.46747 31.64034 192.96713 33.04822 190.0 33.0 C 189.9979 31.6518 189.8314 30.301699 189.5 29.0 C 189.2581 30.004866 188.93248 30.676226 188.0 31.0 C 188.0 31.215036 188.0 31.41889 188.0 31.625 Z M 190.0 28.4375 C 190.35912 28.850351 190.64778 28.7395 191.0 28.5 C 190.64963 28.227404 190.3319 28.111198 190.0 28.4375 Z M 203.0 25.25 C 203.83228 26.157284 205.65193 25.88709 207.0 26.0 C 206.98715 27.502863 207.07286 29.412336 207.5 31.0 C 208.1662 29.406456 209.41364 28.17686 211.0 27.5 C 208.85944 26.510197 208.8223 23.42946 208.5 21.0 C 208.33247 22.34019 208.16647 23.668198 208.0 25.0 C 206.51091 25.15756 204.57553 24.801294 203.0 25.25 Z M 203.0 35.5 C 204.16287 35.819355 205.31735 33.961033 206.0119 33.368572 C 206.48915 32.65483 206.8784 31.805151 206.5 31.0 C 205.93349 33.20098 204.15413 33.948853 203.0 35.5 Z " />

<path style="fill:rgb(45.098038%,20.0%,33.333336%);fill-rule:evenodd;stroke:none;" name="Path No.20" d="M 79.0 26.0 C 79.597115 26.0 80.35054 26.0 81.0 26.0 C 80.87146 24.226189 81.295204 21.837812 80.5 20.0 C 78.48243 21.617495 79.01757 23.887428 79.0 26.0 Z M 91.0 20.25 C 91.97892 22.00017 91.466866 23.420433 91.0 25.0 C 91.89485 25.0 93.026344 25.0 94.0 25.0 C 94.0 23.334663 94.0 21.660004 94.0 20.0 C 93.10822 20.0 91.96966 20.0 91.0 20.0 C 91.0 20.07176 91.0 20.17824 91.0 20.25 Z M 146.0 22.0 C 146.0 21.394117 146.0 20.657259 146.0 20.0 C 145.33334 20.0 144.6564 20.0 144.0 20.0 C 143.80646 21.549063 144.73422 22.15338 146.0 22.0 Z M 188.5 34.0 C 189.25522 32.73828 189.0637 30.580587 188.5 29.0 C 186.35014 30.553724 186.92502 32.664024 188.5 34.0 Z M 190.0 18.0 C 190.60588 18.0 191.34274 18.0 192.0 18.0 C 192.0 16.986723 192.0 15.997278 192.0 15.0 C 191.39412 15.0 190.65726 15.0 190.0 15.0 C 190.0 15.605884 190.0 16.342741 190.0 17.0 C 190.0 17.296824 190.0 17.67671 190.0 18.0 Z " />

<path style="fill:rgb(0.0%,0.0%,23.529411%);fill-rule:evenodd;stroke:none;" name="Path No.21" d="M 84.0 27.0 C 84.597115 27.0 85.35054 27.0 86.0 27.0 C 85.784386 24.24561 87.20306 21.396631 90.0 21.0 C 89.93472 19.973545 89.8346 18.881063 89.035645 18.241058 C 88.11767 17.270662 87.003975 17.332638 86.01481 17.872736 C 84.35837 18.709131 84.01017 20.215601 84.01926 21.811197 C 83.97682 23.348982 84.01676 25.325802 84.0 27.0 Z M 99.0 20.0 C 100.176735 20.0 101.72376 20.0 103.0 20.0 C 103.0 18.823263 103.0 17.27624 103.0 16.0 C 101.665596 16.0 100.33301 16.0 99.0 16.0 C 99.0 17.3344 99.0 18.66699 99.0 20.0 Z " />

<path style="fill:rgb(25.490198%,20.0%,41.960785%);fill-rule:evenodd;stroke:none;" name="Path No.22" d="M 80.0 26.0 C 81.22475 25.848421 82.42154 25.429502 83.5 26.0 C 84.37141 23.856508 83.79425 20.663195 84.0 18.0 C 81.16415 18.393303 80.70153 22.371346 80.13349 24.508682 C 79.98439 24.995708 79.99628 25.496525 80.0 26.0 Z " />

<path style="fill:rgb(0.0%,5.098039%,33.333336%);fill-rule:evenodd;stroke:none;" name="Path No.23" d="M 89.5 22.0 C 91.109344 20.861622 93.12557 21.005869 95.0 21.0 C 95.0 19.822649 95.0 18.279045 95.0 17.0 C 93.32979 17.0 91.66071 17.0 90.0 17.0 C 89.65574 18.717215 88.75014 20.347363 89.5 22.0 Z " />

<path style="fill:rgb(45.098038%,16.470589%,23.529411%);fill-rule:evenodd;stroke:none;" name="Path No.24" d="M 93.0 30.0 C 96.45352 29.787838 97.04531 26.705708 97.0 24.0 C 95.80848 24.0 94.29549 24.0 93.0 24.0 C 93.01052 25.051176 93.22043 26.04708 93.31567 27.086996 C 93.551605 27.800346 92.92649 29.051493 93.0 30.0 Z " />

<path style="fill:rgb(0.0%,0.0%,13.333334%);fill-rule:evenodd;stroke:none;" name="Path No.25" d="M 80.0 23.0 C 80.60588 23.0 81.34274 23.0 82.0 23.0 C 82.0 21.664818 82.0 20.324516 82.0 19.0 C 81.39412 19.0 80.65726 19.0 80.0 19.0 C 80.0 20.338127 80.0 21.668474 80.0 23.0 Z " />

<path style="fill:rgb(45.098038%,23.137255%,41.960785%);fill-rule:evenodd;stroke:none;" name="Path No.26" d="M 83.5 20.0 C 84.33903 18.450205 83.827644 15.991028 84.0 14.0 C 83.402885 14.0 82.64946 14.0 82.0 14.0 C 81.88941 16.171892 81.68011 18.622038 83.5 20.0 Z " />

<path style="fill:rgb(32.156864%,23.137255%,58.823532%);fill-rule:evenodd;stroke:none;" name="Path No.27" d="M 87.5 23.0 C 89.2056 21.644175 88.90694 20.096144 87.5 19.0 C 86.95609 19.502203 86.27766 20.005037 86.21457 20.744364 C 86.22059 21.67403 86.8925 22.392405 87.5 23.0 Z M 96.5 26.0 C 96.92665 25.056644 97.02932 24.021067 97.0 23.0 C 96.09709 23.0 94.96927 23.0 94.0 23.0 C 93.95253 24.932901 95.41762 25.146671 96.5 26.0 Z " />

<path style="fill:rgb(25.490198%,20.0%,58.823532%);fill-rule:evenodd;stroke:none;" name="Path No.28" d="M 95.0 23.0 C 96.013275 23.0 97.00272 23.0 98.0 23.0 C 98.0 21.986723 98.0 20.997278 98.0 20.0 C 97.110115 20.0 95.968216 20.0 95.0 20.0 C 95.0 20.889889 95.0 22.031784 95.0 23.0 Z " />

<path style="fill:rgb(32.156864%,9.411765%,0.0%);fill-rule:evenodd;stroke:none;" name="Path No.29" d="M 156.0 17.5 C 155.12292 16.869612 154.01782 17.004885 153.0 17.0 C 152.971 17.544481 153.01234 18.06029 153.28691 18.497705 C 153.78267 19.016392 154.41328 18.873707 154.90385 18.529112 C 155.26045 18.25351 155.66354 17.844831 156.0 17.5 Z " />

<path style="fill:rgb(18.039217%,16.470589%,58.823532%);fill-rule:evenodd;stroke:none;" name="Path No.30" d="M 94.5 25.0 C 95.172935 24.349598 95.93886 24.393959 96.5 25.0 C 96.91477 24.059372 97.01925 23.01665 97.0 22.0 C 96.108154 22.0 94.970505 22.0 94.0 22.0 C 93.983864 22.904747 94.052086 24.108774 94.5 25.0 Z " />

<path style="fill:rgb(0.0%,0.0%,0.0%);fill-rule:evenodd;stroke:none;" name="Path No.31" d="M 25.0 29.375 C 25.631094 30.25875 26.692856 31.131718 27.5 32.0 C 30.108997 29.928812 33.042263 28.294582 35.5 26.0 C 36.01831 26.0 36.525604 26.0 37.0 26.0 C 37.0 30.002811 37.0 34.01207 37.0 38.0 C 37.874435 38.0 39.04676 38.0 40.0 38.0 C 40.0 33.99719 40.0 29.987928 40.0 26.0 C 40.51831 26.0 41.025604 26.0 41.5 26.0 C 43.831516 28.467522 46.809 30.022419 49.5 32.0 C 50.23784 31.262163 51.196983 30.303019 52.0 29.5 C 50.292973 28.112919 47.882195 26.687346 46.001392 25.21033 C 44.996105 24.430305 43.863216 23.814816 42.97259 22.903486 C 42.60982 22.364307 42.19945 23.014296 41.710014 22.974945 C 41.209785 22.94293 40.536972 22.95202 40.0 23.0 C 40.151917 21.298986 40.595795 19.654106 41.0 18.0 C 44.326405 18.0 47.673626 18.0 51.0 18.0 C 51.0 17.125565 51.0 15.9532385 51.0 15.0 C 42.663277 15.0 34.326057 15.0 26.0 15.0 C 26.0 15.874435 26.0 17.04676 26.0 18.0 C 27.794067 18.000877 30.057629 17.99276 32.0115 18.019087 C 33.745636 17.991869 35.38162 18.047756 37.0 18.5 C 35.069668 20.452187 33.51557 22.742458 31.454344 24.56103 C 30.328667 25.459112 29.205301 26.32381 28.0565 27.177929 C 27.193966 27.906982 25.80657 28.456352 25.0 29.375 Z M 79.0 25.5 C 79.592545 25.983475 80.31886 25.991312 81.0 26.0 C 81.15902 24.97357 81.60607 23.99945 81.59968 22.954174 C 81.56533 22.145365 81.09531 21.502611 80.5 21.0 C 79.961296 22.310783 80.15705 24.310202 79.0 25.5 Z M 79.0 35.5 C 79.672165 36.04788 80.72568 36.406746 81.5 37.0 C 82.39635 35.318413 83.47034 33.812004 84.0 32.0 C 84.96282 32.036137 85.794846 32.343792 86.5 33.0 C 88.071175 31.368643 89.92849 30.112589 91.59281 28.599424 C 93.30605 27.04139 94.56462 25.101381 95.5 23.0 C 96.29433 25.916613 94.79302 27.841307 93.0 29.5 C 93.447586 29.947584 94.01473 30.51473 94.5 31.0 C 96.44221 29.202366 97.8992 27.069038 99.5 25.0 C 100.69326 26.779305 101.899536 29.231012 103.5 31.0 C 103.996155 30.50694 104.55729 29.868225 105.0 29.25 C 104.58897 27.976917 103.39739 26.746353 102.7875 25.428753 C 102.00946 24.01621 101.32423 22.563263 101.0 21.0 C 102.18758 21.0 103.71073 21.0 105.0 21.0 C 104.62981 19.271389 104.00176 17.650414 102.99862 16.19713 C 101.700066 14.790906 99.827156 14.203081 98.0 14.0 C 97.98332 15.683677 97.78738 17.346722 97.5 19.0 C 97.33183 17.991005 97.16682 17.000921 97.0 16.0 C 94.69294 15.993825 93.612854 15.873819 93.0 14.0 C 92.125565 14.0 90.95324 14.0 90.0 14.0 C 89.52536 16.134233 87.85461 16.84195 86.0 17.0 C 86.0 16.125565 86.0 14.9532385 86.0 14.0 C 85.125565 14.0 83.95324 14.0 83.0 14.0 C 83.14909 21.402752 83.62591 29.91289 79.0 35.5 Z M 86.0 29.0 C 88.075806 28.583088 89.52913 26.914259 91.0 25.5 C 89.83487 24.910992 88.66542 24.26195 88.096855 23.00716 C 86.84691 22.171164 88.36812 20.277649 89.0 19.5 C 88.552414 19.052416 87.98527 18.48527 87.5 18.0 C 83.97221 20.974667 85.37924 25.085068 86.0 29.0 Z M 90.0 37.0 C 90.35032 35.54392 90.90573 33.639366 91.0 32.0 C 90.10515 32.0 88.973656 32.0 88.0 32.0 C 87.98796 33.128162 87.39357 34.069458 87.34577 35.158096 C 87.52216 36.312992 88.99298 36.999935 90.0 37.0 Z M 92.5 24.0 C 92.88875 23.0024 93.014275 21.980484 93.0 21.0 C 92.04208 20.87545 91.196495 20.574795 90.5 20.0 C 90.235054 20.985628 89.314354 22.00154 89.3621 22.95666 C 89.48915 23.895138 91.33702 22.929579 92.06679 23.700317 C 92.19113 23.786339 92.37565 23.91398 92.5 24.0 Z M 94.0 20.0 C 94.0 19.394117 94.0 18.657259 94.0 18.0 C 93.10026 18.0 91.978874 18.0 91.0 18.0 C 90.80411 19.693365 91.89145 20.196701 93.20835 20.0 C 93.44784 20.0 93.7495 20.0 94.0 20.0 Z M 96.0 36.5 C 95.36655 35.648666 95.17137 34.928356 95.5 34.0 C 96.35262 34.816944 96.91222 35.815483 97.0 37.0 C 97.874435 37.0 99.04676 37.0 100.0 37.0 C 99.63683 35.538418 99.15117 33.639683 99.0 32.0 C 97.899055 32.263035 96.453514 31.987852 95.52396 32.470062 C 94.60707 32.0413 93.164764 32.218605 92.0 32.0 C 91.92604 33.227547 92.149796 34.41803 92.78096 35.467712 C 93.499 36.730263 94.85788 36.81809 96.0 36.5 Z M 96.0 21.4375 C 96.359116 21.850351 96.64779 21.7395 97.0 21.5 C 96.64963 21.227404 96.33189 21.111198 96.0 21.4375 Z M 102.0 19.0 C 102.0 18.394117 102.0 17.657259 102.0 17.0 C 101.33334 17.0 100.65641 17.0 100.0 17.0 C 99.80646 18.549063 100.734215 19.15338 102.0 19.0 Z M 100.0 32.25 C 100.91255 33.70662 101.74484 35.268036 102.0 37.0 C 103.19242 36.957874 104.19487 36.33879 105.0 35.5 C 103.86581 34.270947 103.33639 32.60915 103.0 31.0 C 101.91512 31.051311 100.93805 31.512829 100.0 32.0 C 100.0 32.07176 100.0 32.17824 100.0 32.25 Z M 155.0 35.0 C 155.0 34.125565 155.0 32.95324 155.0 32.0 C 152.08658 32.51783 149.17775 32.929718 146.21912 32.96517 C 143.9257 32.87535 140.7778 33.1863 138.5 32.0 C 137.9522 30.071611 138.76457 28.750648 140.0 27.5 C 139.26216 26.762163 138.30302 25.803019 137.5 25.0 C 136.18797 26.49897 134.29443 28.08102 134.49088 29.958117 C 134.38818 32.121532 135.5057 34.39206 137.62889 34.8484 C 140.76663 36.090015 145.17694 36.048397 148.77425 35.927685 C 150.88416 35.843887 152.96216 35.51636 155.0 35.0 Z M 136.0 17.5 C 136.0 18.018309 136.0 18.525604 136.0 19.0 C 139.67099 19.089302 143.37984 18.81766 147.0 19.5 C 146.31773 19.670565 145.67464 19.83134 145.0 20.0 C 145.10933 21.239016 145.64874 22.230282 146.5 23.0 C 147.70915 21.802597 149.12839 20.897661 150.65657 20.19785 C 152.18634 19.449627 154.14613 18.321495 156.0 18.0 C 155.70288 16.811523 155.32292 15.291696 155.0 14.0 C 154.10136 14.249707 153.32681 14.436941 152.65369 15.002634 C 152.32483 15.936075 150.40182 15.51778 149.24352 15.888583 C 144.83414 16.144592 140.40587 15.892547 136.0 16.0 C 136.0 16.518309 136.0 17.025604 136.0 17.5 Z M 156.0 14.375 C 156.64728 15.503394 157.51392 16.973593 158.5 18.0 C 158.94759 17.552416 159.51472 16.98527 160.0 16.5 C 159.2198 15.488782 158.54282 13.95012 157.5 13.0 C 157.07457 13.431669 156.58824 13.829959 156.0 14.0 C 156.0 14.12132 156.0 14.26368 156.0 14.375 Z M 200.0 26.0 C 201.97841 26.513794 203.95312 26.929178 206.0 27.0 C 205.85602 28.58278 205.31033 30.681051 204.10654 32.015484 C 203.03113 33.534813 201.74857 34.82797 201.0 36.5 C 201.44759 36.947582 202.01472 37.514732 202.5 38.0 C 204.38121 36.68986 206.18806 35.439022 207.40038 33.613213 C 208.32874 32.329163 209.27786 30.42353 210.5 29.0 C 211.2306 29.645752 212.03452 29.959312 213.0 30.0 C 213.10062 29.070583 213.4218 28.231056 214.0 27.5 C 212.7787 26.734282 211.40082 26.283623 210.0 26.0 C 210.0 24.207138 210.0 21.947878 210.0 20.0 C 209.12556 20.0 207.95323 20.0 207.0 20.0 C 207.0 21.18758 207.0 22.710728 207.0 24.0 C 205.32216 24.0 203.66939 24.0 202.0 24.0 C 201.92914 20.966482 202.20453 17.930021 203.0 15.0 C 199.00462 15.0 194.99538 15.0 191.0 15.0 C 191.0 15.874435 191.0 17.04676 191.0 18.0 C 193.08351 18.0 195.73628 18.0 198.0 18.0 C 198.0 19.677835 198.0 21.330612 198.0 23.0 C 192.1942 22.69426 186.17392 28.865463 189.01988 33.832043 C 189.83102 34.65501 190.51491 35.691082 191.73306 35.502907 C 193.24306 35.64592 194.79976 34.459328 196.01636 33.265285 C 197.12971 32.137077 198.01755 30.819927 198.725 29.411366 C 199.34982 28.35258 199.79297 27.198795 200.0 26.0 Z M 191.5 32.0 C 194.2133 31.328495 195.5782 28.491013 196.0 26.0 C 194.45811 26.097816 193.27213 27.170424 192.45123 28.397335 C 191.75917 29.311817 191.00883 30.791842 191.5 32.0 Z " />

<path style="fill:rgb(38.82353%,23.137255%,58.823532%);fill-rule:evenodd;stroke:none;" name="Path No.32" d="M 96.0 22.4375 C 96.359116 22.850351 96.64779 22.7395 97.0 22.5 C 96.64963 22.227404 96.33189 22.111198 96.0 22.4375 Z " />
</g>
</svg>
