<?xml version="1.0" encoding="UTF-8"?>
<svg xmlns="http://www.w3.org/2000/svg" xmlns:xlink="http://www.w3.org/1999/xlink" width="173.0pt" height="53.0pt" viewBox="0 0 173.0 53.0" version="1.1">

<defs>
<polycosvg ratio="1.000000" offsetx="0.000000" offsety="0.000000" />
</defs><g>
<path style="fill:rgb(62.352943%,63.137257%,67.05882%);fill-rule:evenodd;stroke:none;" name="Path No.33" d="M 0.0 53.0 C 57.671795 53.0 115.33354 53.0 173.0 53.0 C 173.0 35.33519 173.0 17.659477 173.0 0.0 C 115.32898 0.0 57.665688 0.0 0.0 0.0 C 0.0 17.658127 0.0 35.347794 0.0 53.0 Z M 18.0 32.5 C 18.0 33.01831 18.0 33.525604 18.0 34.0 C 18.874435 34.0 20.04676 34.0 21.0 34.0 C 21.0 34.874435 21.0 36.04676 21.0 37.0 C 25.330465 36.47764 29.81224 36.911552 34.0 35.5 C 32.698517 35.13776 31.343819 34.990288 30.0 35.0 C 30.0 32.01005 30.0 28.977646 30.0 26.0 C 31.677835 26.0 33.330612 26.0 35.0 26.0 C 35.34919 29.562256 36.600754 34.214607 39.5 37.0 C 39.976032 36.524883 40.541862 35.911552 41.0 35.34375 C 41.013546 34.207733 40.897076 33.062202 40.5 32.0 C 39.41736 32.768963 38.21125 33.018238 37.0 33.0 C 36.86297 30.888016 36.355003 28.268627 36.0 26.0 C 37.50358 25.849642 39.36732 25.663267 41.0 25.5 C 39.49642 25.349642 37.63268 25.163267 36.0 25.0 C 36.0 22.33413 36.0 19.662834 36.0 17.0 C 35.40288 17.0 34.649464 17.0 34.0 17.0 C 34.0 19.66587 34.0 22.337166 34.0 25.0 C 33.125565 25.0 31.95324 25.0 31.0 25.0 C 31.0 22.91649 31.0 20.263714 31.0 18.0 C 30.402882 18.0 29.649462 18.0 29.0 18.0 C 28.525362 20.134233 26.854609 20.84195 25.0 21.0 C 24.829435 20.31774 24.66866 19.674635 24.5 19.0 C 23.63184 20.906183 21.75276 21.069696 20.0 21.5 C 21.009659 23.037205 20.971924 24.967299 20.0 26.5 C 20.48893 27.154392 21.706118 27.487373 21.673101 28.11545 C 21.896296 29.061726 21.96486 30.037 22.0 31.0 C 20.820213 31.0 19.283754 31.0 18.0 31.0 C 18.0 31.518309 18.0 32.025604 18.0 32.5 Z M 19.5 21.0 C 19.794552 20.357206 19.984505 19.701838 20.0 19.0 C 19.10621 19.081524 18.925545 19.796942 19.166674 20.481333 C 19.277782 20.654222 19.388891 20.82711 19.5 21.0 Z M 23.0 30.0 C 25.44192 29.95521 26.638647 32.199337 29.0 32.0 C 29.0 30.322165 29.0 28.669388 29.0 27.0 C 27.81242 27.0 26.289272 27.0 25.0 27.0 C 25.0 26.125565 25.0 24.95324 25.0 24.0 C 24.110611 24.0 22.968046 24.0 22.0 24.0 C 22.114569 26.032478 22.885384 27.967747 23.0 30.0 Z M 83.5 29.0 C 84.00794 28.492056 84.4972 28.002796 85.0 27.5 C 84.49206 26.992056 84.0028 26.502796 83.5 26.0 C 83.07457 26.43167 82.588234 26.829958 82.0 27.0 C 82.193054 27.746185 82.89772 28.433374 83.5 29.0 Z M 127.0 18.25 C 128.06226 19.343843 130.35252 18.739714 132.0 19.0 C 131.8328 21.964716 130.06836 24.506603 128.0 26.5 C 130.26299 27.952808 130.06757 31.922565 130.0 35.0 C 130.59712 35.0 131.35054 35.0 132.0 35.0 C 132.0 31.673595 132.0 28.326372 132.0 25.0 C 133.79286 25.0 136.05212 25.0 138.0 25.0 C 138.0 29.002811 138.0 33.01207 138.0 37.0 C 138.59712 37.0 139.35054 37.0 140.0 37.0 C 140.0 32.99719 140.0 28.987928 140.0 25.0 C 141.79286 25.0 144.05212 25.0 146.0 25.0 C 145.99713 26.612017 145.99567 28.192677 146.0216 29.796745 C 146.05096 31.228779 145.9431 32.68959 146.5 34.0 C 148.39658 31.627668 147.85794 27.42843 148.0 24.0 C 146.40015 24.012571 144.83249 24.021843 143.23914 23.884022 C 142.37025 23.76575 141.51523 23.74499 140.6521 23.786446 C 140.48325 23.346224 140.39891 22.5043 140.0 22.0 C 139.40288 22.0 138.64946 22.0 138.0 22.0 C 137.2695 24.178566 135.09503 23.947353 133.0 24.0 C 133.18332 22.41525 133.42456 20.142548 134.89561 19.599773 C 139.49779 18.673956 144.30301 18.685959 149.0 18.5 C 144.65584 18.332916 140.33032 18.166552 136.0 18.0 C 136.00685 16.956255 135.95378 15.944946 135.5 15.0 C 134.64737 15.816946 134.08778 16.815485 134.0 18.0 C 132.88599 17.999722 131.53308 18.002699 130.32689 18.01339 C 129.34544 18.09756 128.01984 17.891386 127.0 18.25 Z M 143.0 34.3125 C 143.36687 35.045143 144.41898 34.806076 145.06024 34.679 C 145.36975 34.62005 145.69963 34.557213 146.0 34.5 C 145.003 34.328724 144.00952 34.085724 143.0 34.0 C 143.0 34.116665 143.0 34.220833 143.0 34.3125 Z " />

<path style="fill:rgb(62.352943%,63.137257%,57.64706%);fill-rule:evenodd;stroke:none;" name="Path No.34" d="M 23.0 25.0 C 25.44192 24.95521 26.638647 27.199337 29.0 27.0 C 29.0 25.385286 29.0 23.803804 29.0 22.2 C 28.965435 20.929234 29.033525 19.28904 28.5 18.0 C 27.75643 18.461067 27.14148 19.383053 26.264978 19.400293 C 23.248262 19.844477 22.955067 22.623262 23.0 25.0 Z " />

<path style="fill:rgb(24.705883%,0.0%,0.0%);fill-rule:evenodd;stroke:none;" name="Path No.35" d="M 33.0 25.0 C 33.89485 25.0 35.026344 25.0 36.0 25.0 C 36.0 22.655087 36.0 20.334248 36.0 18.0 C 35.10515 18.0 33.973656 18.0 33.0 18.0 C 33.0 20.338434 33.0 22.664112 33.0 25.0 Z M 144.0 25.25 C 145.03711 27.460365 145.6092 31.09238 144.0 33.5 C 145.01288 33.888264 146.00424 34.01476 147.0 34.0 C 147.0 31.016203 147.0 27.983797 147.0 25.0 C 146.11993 25.0 144.95795 25.0 144.0 25.0 C 144.0 25.07176 144.0 25.17824 144.0 25.25 Z " />

<path style="fill:rgb(44.705883%,63.137257%,67.05882%);fill-rule:evenodd;stroke:none;" name="Path No.36" d="M 23.0 38.0 C 24.224747 37.848423 25.421543 37.4295 26.5 38.0 C 26.709839 37.42046 27.315407 36.913948 27.348986 36.364697 C 27.781107 36.365788 28.44154 35.986374 29.0 36.0 C 29.0 35.125565 29.0 33.95324 29.0 33.0 C 28.125565 33.0 26.95324 33.0 26.0 33.0 C 26.0 32.40288 26.0 31.649462 26.0 31.0 C 25.125565 31.0 23.95324 31.0 23.0 31.0 C 23.0 33.34787 23.0 35.6611 23.0 38.0 Z " />

<path style="fill:rgb(62.352943%,63.137257%,47.843136%);fill-rule:evenodd;stroke:none;" name="Path No.37" d="M 32.0 18.25 C 33.00168 20.254488 33.37926 22.70818 32.0 24.5 C 32.993275 24.898544 34.01418 24.910334 35.0 24.5 C 33.911987 22.985357 33.744415 20.191875 35.0 18.5 C 33.9892 18.130747 32.99091 17.981209 32.0 18.0 C 32.0 18.07176 32.0 18.17824 32.0 18.25 Z M 38.0 35.0 C 38.89485 35.0 40.026344 35.0 41.0 35.0 C 41.0 33.823265 41.0 32.27624 41.0 31.0 C 39.84684 30.970474 39.158333 31.41657 38.405167 32.10117 C 37.868786 32.973557 38.020603 34.034447 38.0 35.0 Z " />

<path style="fill:rgb(62.352943%,54.11765%,37.64706%);fill-rule:evenodd;stroke:none;" name="Path No.38" d="M 18.5 36.0 C 18.92376 35.57499 19.38084 35.222256 20.0 35.25 C 20.0 36.0563 20.0 37.126 20.0 38.0 C 20.597118 38.0 21.350538 38.0 22.0 38.0 C 22.0 35.33197 22.0 32.662697 22.0 30.0 C 21.125565 30.0 19.95324 30.0 19.0 30.0 C 19.115751 32.087513 17.667414 34.121815 18.5 36.0 Z " />

<path style="fill:rgb(35.294117%,14.509805%,0.0%);fill-rule:evenodd;stroke:none;" name="Path No.39" d="M 27.0 26.5 C 28.098988 29.619802 27.061302 32.86595 27.5 36.0 C 28.254147 36.0 29.18214 36.0 30.0 36.0 C 30.0 32.6686 30.0 29.320736 30.0 26.0 C 28.98764 26.0 28.007435 26.0 27.0 26.0 C 27.0 26.143518 27.0 26.356482 27.0 26.5 Z " />

<path style="fill:rgb(14.117648%,35.686275%,57.64706%);fill-rule:evenodd;stroke:none;" name="Path No.40" d="M 30.0 25.0 C 31.02184 25.013193 32.053764 24.899796 33.0 24.5 C 31.789217 23.023441 31.712873 20.170744 33.0 18.5 C 32.077847 18.034275 31.021122 17.980848 30.0 18.0 C 30.0 20.352503 30.0 22.65978 30.0 25.0 Z " />

<path style="fill:rgb(53.725494%,35.686275%,14.901961%);fill-rule:evenodd;stroke:none;" name="Path No.41" d="M 16.0 36.25 C 16.345213 37.099545 17.231583 36.96987 18.0 37.0 C 17.969704 36.28618 17.814383 35.635513 17.5 35.0 C 17.077415 35.50684 16.426258 35.843407 16.0 36.25 Z M 19.0 32.0 C 19.04155 30.960896 18.944397 29.944378 18.5 29.0 C 18.050665 29.420826 17.423853 29.883236 17.13756 30.506035 C 16.968075 31.768661 18.08654 32.014946 19.0 32.0 Z M 25.0 20.0 C 25.04155 18.960896 24.944397 17.944378 24.5 17.0 C 24.050665 17.420826 23.423853 17.883236 23.13756 18.506035 C 22.968075 19.768661 24.08654 20.014948 25.0 20.0 Z M 23.0 24.375 C 23.478252 25.063221 23.635132 25.912441 23.0 26.5 C 23.812252 26.961956 25.000366 27.013992 26.0 27.0 C 26.0 26.105146 26.0 24.973658 26.0 24.0 C 25.111048 24.0 23.966726 24.0 23.0 24.0 C 23.0 24.121319 23.0 24.263681 23.0 24.375 Z " />

<path style="fill:rgb(44.705883%,54.11765%,37.64706%);fill-rule:evenodd;stroke:none;" name="Path No.42" d="M 22.5 26.0 C 23.259542 25.360493 24.17789 25.025852 25.0 24.5 C 24.209549 23.556692 23.19373 22.856686 22.0 23.0 C 21.950459 24.037504 22.143467 25.035475 22.5 26.0 Z M 23.5 33.0 C 24.172934 32.349598 24.938858 32.39396 25.5 33.0 C 25.91477 32.059372 26.01925 31.01665 26.0 30.0 C 25.108152 30.0 23.970505 30.0 23.0 30.0 C 22.983868 30.904747 23.052088 32.108772 23.5 33.0 Z " />

<path style="fill:rgb(24.705883%,45.098038%,67.05882%);fill-rule:evenodd;stroke:none;" name="Path No.43" d="M 21.0 27.0 C 22.039822 27.030409 23.056341 26.933256 24.0 26.5 C 23.41382 25.793047 23.050983 24.917252 23.0 24.0 C 22.394117 24.0 21.657259 24.0 21.0 24.0 C 21.0 24.605883 21.0 25.342741 21.0 26.0 C 21.0 26.296824 21.0 26.67671 21.0 27.0 Z " />

<path style="fill:rgb(24.705883%,45.098038%,57.64706%);fill-rule:evenodd;stroke:none;" name="Path No.44" d="M 26.0 33.0 C 26.605883 33.0 27.342741 33.0 28.0 33.0 C 27.938168 31.725477 27.287601 30.28949 26.0 30.0 C 26.0 30.996183 26.0 32.009132 26.0 33.0 Z " />

<path style="fill:rgb(53.725494%,63.137257%,67.05882%);fill-rule:evenodd;stroke:none;" name="Path No.45" d="M 20.0 22.0 C 20.896431 22.0 22.02357 22.0 23.0 22.0 C 23.0 21.394117 23.0 20.657259 23.0 20.0 C 21.875896 20.029442 20.965761 19.46014 20.0 19.0 C 20.0 19.900976 20.0 21.022696 20.0 22.0 Z " />

<path style="fill:rgb(0.0%,0.0%,0.0%);fill-rule:evenodd;stroke:none;" name="Path No.46" d="M 17.0 19.625 C 17.526047 21.358156 19.177189 22.407799 20.0 24.0 C 19.313818 25.096252 18.292286 25.825058 17.0 26.0 C 17.0 26.597118 17.0 27.350538 17.0 28.0 C 18.504223 28.039848 20.125256 27.946192 21.0 29.0 C 20.010153 29.571768 19.071402 29.14855 18.0 29.0 C 17.283989 31.605497 16.94731 34.30169 17.0 37.0 C 17.597118 37.0 18.350538 37.0 19.0 37.0 C 19.162706 34.93063 19.853008 32.960373 20.5 31.0 C 20.652172 31.456518 20.8347 32.004097 21.0 32.5 C 21.0 34.326565 21.0 36.178417 21.0 38.0 C 21.874435 38.0 23.04676 38.0 24.0 38.0 C 23.98084 35.659023 24.11372 33.30615 24.5 31.0 C 24.668165 32.008995 24.83318 32.99908 25.0 34.0 C 25.874435 34.0 27.04676 34.0 28.0 34.0 C 27.632812 32.5343 27.153305 30.635437 27.0 29.0 C 25.991005 28.831835 25.000921 28.66682 24.0 28.5 C 25.60675 28.255527 27.111607 27.827559 28.5 27.0 C 29.179401 29.307339 28.908674 32.415867 29.0 35.0 C 28.125565 35.0 26.95324 35.0 26.0 35.0 C 26.0 35.874435 26.0 37.04676 26.0 38.0 C 29.0305 37.98788 32.02294 37.514774 35.0 37.0 C 35.01116 35.964687 35.17489 34.975864 35.5 34.0 C 36.371815 36.002518 37.93273 37.43113 40.0 38.0 C 42.065178 36.30848 41.971397 33.48187 42.0 31.0 C 41.40288 31.0 40.649464 31.0 40.0 31.0 C 40.028168 31.930826 39.8916 33.065685 39.5 34.0 C 38.295475 31.95665 38.0964 29.53565 37.0 27.5 C 38.61129 26.982075 40.33015 27.010893 42.0 27.0 C 42.0 26.125565 42.0 24.95324 42.0 24.0 C 40.322166 24.0 38.669388 24.0 37.0 24.0 C 37.0 22.207138 37.0 19.947878 37.0 18.0 C 38.18758 18.0 39.710728 18.0 41.0 18.0 C 40.971092 17.288319 40.80419 16.641455 40.5 16.0 C 38.624313 15.08181 36.747078 15.967958 34.825916 16.20734 C 32.55238 16.543045 30.294214 16.858057 28.0 17.0 C 28.011292 20.023432 27.977863 23.0125 27.5 26.0 C 27.331835 24.991005 27.16682 24.000921 27.0 23.0 C 26.481691 23.0 25.974396 23.0 25.5 23.0 C 25.178185 23.459175 24.868208 24.05065 24.526955 24.534626 C 24.730967 25.102203 24.413908 25.509 24.25 26.0 C 23.730612 26.0 23.060875 26.0 22.5 26.0 C 22.358732 24.754173 23.901733 23.571886 24.475798 22.271467 C 25.352495 21.027962 26.141464 19.748226 27.0 18.5 C 26.21697 18.115429 25.255327 17.563532 24.5 17.0 C 23.77787 18.524496 22.731611 19.857265 21.5 21.0 C 20.680164 19.122417 23.15417 16.820614 24.0 15.5 C 23.220715 15.0901985 22.23887 14.615758 21.5 14.0 C 19.864805 15.654489 19.034399 18.035305 17.0 19.0 C 17.0 19.215036 17.0 19.41889 17.0 19.625 Z M 31.0 24.0 C 32.176735 24.0 33.72376 24.0 35.0 24.0 C 35.0 22.334663 35.0 20.660004 35.0 19.0 C 33.81317 19.0 32.29272 19.0 31.0 19.0 C 31.0 20.670166 31.0 22.338835 31.0 24.0 Z M 31.0 34.0 C 32.177353 34.0 33.720955 34.0 35.0 34.0 C 34.867603 31.627913 34.348244 29.333838 34.0 27.0 C 33.125565 27.0 31.95324 27.0 31.0 27.0 C 31.0 29.352142 31.0 31.662857 31.0 34.0 Z M 81.23891 27.401894 C 81.46913 29.120644 83.23232 30.187218 84.52488 29.413061 C 85.82723 28.687765 85.98191 27.081074 85.1392 26.085644 C 84.507744 25.093554 82.818665 25.146511 82.024925 25.712109 C 81.4559 26.11524 81.2371 26.598013 81.23891 27.401894 Z M 124.0 27.375 C 124.631096 28.25875 125.692856 29.131718 126.5 30.0 C 127.108246 29.391754 127.84252 28.65748 128.5 28.0 C 129.30544 30.277905 128.79979 33.420998 129.0 36.0 C 130.18758 36.0 131.71072 36.0 133.0 36.0 C 133.0 32.673595 133.0 29.326372 133.0 26.0 C 134.18758 26.0 135.71072 26.0 137.0 26.0 C 137.0 30.002811 137.0 34.01207 137.0 38.0 C 138.18758 38.0 139.71072 38.0 141.0 38.0 C 141.0 33.99719 141.0 29.987928 141.0 26.0 C 142.67784 26.0 144.33061 26.0 146.0 26.0 C 146.0 28.08351 146.0 30.736286 146.0 33.0 C 144.81242 33.0 143.28928 33.0 142.0 33.0 C 142.0 33.874435 142.0 35.04676 142.0 36.0 C 143.72522 35.893486 146.1439 35.914104 147.39578 34.397175 C 148.8333 33.103973 148.80878 30.443268 148.98544 28.392323 C 149.01495 26.58987 148.9899 24.789986 149.0 23.0 C 147.70213 22.994242 146.07222 23.038725 144.66893 22.901104 C 143.74132 22.752619 142.54314 22.522043 141.52252 22.617928 C 140.27292 20.682852 137.41339 21.310678 137.0 23.0 C 136.12556 23.0 134.95323 23.0 134.0 23.0 C 134.0289 22.288319 134.1958 21.641455 134.5 21.0 C 136.43951 19.800062 139.51787 20.12006 142.10727 20.00075 C 144.73595 19.99861 147.38426 20.001139 150.0 20.0 C 150.0 19.125565 150.0 17.95324 150.0 17.0 C 145.66133 17.0 141.328 17.0 137.0 17.0 C 137.0 16.125565 137.0 14.9532385 137.0 14.0 C 136.40288 14.0 135.64946 14.0 135.0 14.0 C 133.90375 14.686183 133.17494 15.707715 133.0 17.0 C 130.91649 17.0 128.26372 17.0 126.0 17.0 C 126.0 17.874435 126.0 19.04676 126.0 20.0 C 127.682724 20.01041 129.38693 19.99264 131.0 20.5 C 130.15675 21.740866 129.16153 23.35335 127.894806 24.4156 C 127.32879 24.99039 126.56297 25.65812 125.92621 26.247585 C 125.39551 26.659296 124.4879 26.78351 124.0 27.375 Z " />
</g>
</svg>
