<?xml version="1.0" encoding="UTF-8"?>
<svg xmlns="http://www.w3.org/2000/svg" xmlns:xlink="http://www.w3.org/1999/xlink" width="210.0pt" height="55.0pt" viewBox="0 0 210.0 55.0" version="1.1">

<defs>
<polycosvg ratio="1.000000" offsetx="0.000000" offsety="0.000000" />
</defs><g>
<path style="fill:rgb(91.76471%,23.137255%,7.4509807%);fill-rule:evenodd;stroke:none;" name="Path No.47" d="M 0.0 55.0 C 70.02189 55.0 139.99411 55.0 210.0 55.0 C 210.0 36.66452 210.0 18.324814 210.0 0.0 C 139.98073 0.0 70.00327 0.0 0.0 0.0 C 0.0 18.339363 0.0 36.664783 0.0 55.0 Z M 11.0 17.25 C 11.98274 18.298882 14.112049 17.76838 15.668648 17.982115 C 20.447842 18.022842 25.232433 17.983118 30.0 18.0 C 30.0 23.660074 30.0 29.345259 30.0 35.0 C 28.322165 35.0 26.669388 35.0 25.0 35.0 C 25.0 35.59712 25.0 36.350536 25.0 37.0 C 26.727745 36.91789 29.202732 36.810482 30.516777 35.277576 C 31.492645 33.373306 31.99596 31.274635 31.957884 29.130217 C 32.046913 26.941565 31.952227 24.757362 32.043785 22.578167 C 32.042633 20.246876 31.953152 18.510859 34.0 17.5 C 30.566776 16.807486 26.111067 17.07755 22.321991 17.0 C 20.361702 17.000076 18.380127 16.998777 16.422009 17.003437 C 14.831026 17.217415 12.683211 16.744585 11.0 17.25 Z M 14.0 32.0 C 17.5778 30.950014 21.313505 30.9322 25.0 31.0 C 25.0 28.016203 25.0 24.983797 25.0 22.0 C 21.338823 22.0 17.65184 22.0 14.0 22.0 C 14.0 25.331806 14.0 28.669413 14.0 32.0 Z M 16.0 30.0 C 18.082945 30.0 20.735722 30.0 23.0 30.0 C 23.0 27.917055 23.0 25.264278 23.0 23.0 C 20.661144 23.0 18.328316 23.0 16.0 23.0 C 16.0 25.338856 16.0 27.671684 16.0 30.0 Z M 65.0 22.5 C 65.0 23.018309 65.0 23.525604 65.0 24.0 C 65.874435 24.0 67.04676 24.0 68.0 24.0 C 68.16655 26.33172 68.333885 28.674349 68.5 31.0 C 68.67301 28.33387 68.90955 25.669662 69.0 23.0 C 71.88492 22.860361 74.70177 20.74973 78.0 21.0 C 78.16189 22.504946 77.57913 23.967127 77.65699 25.43621 C 77.21435 25.578283 76.8323 25.91747 76.498825 26.163671 C 76.47525 26.70869 76.52996 27.405418 76.5 28.0 C 77.92607 27.03467 79.19864 27.2154 80.5 28.0 C 81.03265 27.22649 82.04028 26.537395 82.328026 25.71178 C 82.45471 25.40721 82.97501 25.510576 83.35801 25.234991 C 83.836624 25.022528 84.47524 24.721323 85.0 24.5 C 84.23104 23.417356 83.981766 22.21125 84.0 21.0 C 84.874435 21.0 86.04676 21.0 87.0 21.0 C 87.0 20.125565 87.0 18.95324 87.0 18.0 C 85.040344 17.946898 84.27483 17.501993 83.5 16.0 C 82.50711 18.104343 78.085014 18.391306 75.5 17.0 C 75.11174 18.012873 74.98524 19.004242 75.0 20.0 C 71.81496 19.52905 69.2384 19.020947 68.5 16.0 C 68.21549 17.656404 68.0258 19.320362 68.0 21.0 C 67.11061 21.0 65.96805 21.0 65.0 21.0 C 65.0 21.518309 65.0 22.025604 65.0 22.5 Z M 67.0 32.4375 C 67.359116 32.85035 67.64779 32.739502 68.0 32.5 C 67.64963 32.2274 67.33189 32.1112 67.0 32.4375 Z M 78.0 36.4375 C 78.359116 36.85035 78.64779 36.739502 79.0 36.5 C 78.64963 36.2274 78.33189 36.1112 78.0 36.4375 Z M 119.0 31.5 C 119.670105 32.29027 120.26913 33.03968 120.5 34.0 C 120.877 32.823334 120.93228 31.619862 121.12863 30.424452 C 121.21128 29.601969 121.60734 28.813473 121.5 28.0 C 120.63563 28.987621 119.8455 30.375406 119.0 31.5 Z M 121.0 18.25 C 124.31044 20.972874 130.43161 16.61046 132.5 21.0 C 133.58264 20.23104 134.78874 19.981762 136.0 20.0 C 136.0 19.402882 136.0 18.649462 136.0 18.0 C 133.39769 18.0 130.80232 18.0 128.2 18.0 C 126.80854 17.99597 125.401215 17.999783 124.01875 18.012743 C 123.12343 18.060717 121.92617 17.932995 121.0 18.25 Z M 122.0 34.4375 C 122.359116 34.85035 122.64779 34.739502 123.0 34.5 C 122.64963 34.2274 122.33189 34.1112 122.0 34.4375 Z M 125.0 35.3125 C 125.6226 35.936005 126.504005 35.876904 127.334984 35.848885 C 130.22916 35.868374 133.1104 35.558804 136.0 35.5 C 133.99533 35.405663 132.0113 35.312298 130.00664 35.21796 C 128.53294 35.24724 126.57112 34.861378 125.0 35.3125 Z M 173.0 32.5 C 173.7396 33.6605 174.80217 35.089577 176.0 36.0 C 177.87738 35.03947 179.57884 32.704025 181.21687 30.89031 C 182.62274 28.931976 183.79567 26.669678 186.0 25.5 C 184.67378 23.30302 185.65468 19.814974 186.0 17.0 C 182.64111 17.043228 179.34007 17.309887 176.0 17.5 C 178.66838 17.666773 181.3374 17.833588 184.0 18.0 C 183.9627 21.297098 183.25732 24.768723 180.0 25.5 C 180.45929 26.003979 181.20306 26.19632 181.70181 26.571655 C 181.58626 29.749424 178.65785 33.783367 175.0 34.0 C 174.98332 32.316322 174.78737 30.653278 174.5 29.0 C 174.24985 30.357723 174.09999 31.309963 173.0 32.0 C 173.0 32.14352 173.0 32.35648 173.0 32.5 Z M 177.0 26.4375 C 177.35912 26.850351 177.64778 26.7395 178.0 26.5 C 177.64963 26.227404 177.3319 26.111198 177.0 26.4375 Z M 187.0 26.25 C 187.82816 27.177938 189.64775 26.865908 191.0 27.0 C 191.03622 28.791132 190.91812 31.121162 191.5 33.0 C 192.50516 30.605488 193.58185 28.985525 196.0 28.5 C 193.8176 27.54809 193.99936 24.434978 194.0 22.0 C 193.40288 22.0 192.64946 22.0 192.0 22.0 C 192.0 23.18758 192.0 24.710728 192.0 26.0 C 190.51031 26.164768 188.57613 25.794086 187.0 26.25 Z M 187.0 36.458008 C 187.75566 36.78296 188.59738 35.795704 189.23236 35.267635 C 189.76073 34.739273 190.43387 34.066135 191.0 33.5 C 190.06415 33.3917 189.61215 33.98678 189.03004 34.469955 C 188.46185 35.1164 187.56201 35.733994 187.0 36.458008 Z " />

<path style="fill:rgb(51.37255%,20.0%,7.4509807%);fill-rule:evenodd;stroke:none;" name="Path No.48" d="M 24.0 32.0 C 24.597118 32.0 25.350538 32.0 26.0 32.0 C 26.0 28.33527 26.0 24.659397 26.0 21.0 C 25.402882 21.0 24.649462 21.0 24.0 21.0 C 24.0 24.673815 24.0 28.339952 24.0 32.0 Z M 79.0 24.0 C 79.89643 24.0 81.02357 24.0 82.0 24.0 C 82.0 23.103569 82.0 21.97643 82.0 21.0 C 81.110115 21.0 79.968216 21.0 79.0 21.0 C 79.0 21.889889 79.0 23.031784 79.0 24.0 Z " />

<path style="fill:rgb(65.4902%,23.137255%,7.4509807%);fill-rule:evenodd;stroke:none;" name="Path No.49" d="M 69.5 18.0 C 70.44723 17.276901 71.17056 16.252375 71.0 15.0 C 70.39412 15.0 69.65726 15.0 69.0 15.0 C 69.0 15.605884 69.0 16.342741 69.0 17.0 C 69.209076 17.267805 69.2495 17.694368 69.5 18.0 Z M 69.5 25.0 C 70.850914 24.12811 72.867226 23.9417 73.41554 22.057394 C 73.62716 21.166468 73.730835 19.838066 73.11681 19.184614 C 72.465836 18.37004 71.482895 18.31157 70.778984 18.93877 C 68.66989 20.324556 68.84698 22.91363 69.5 25.0 Z M 78.0 27.0 C 79.013275 27.0 80.00272 27.0 81.0 27.0 C 81.0 26.103569 81.0 24.97643 81.0 24.0 C 80.110115 24.0 78.968216 24.0 78.0 24.0 C 78.0 24.889889 78.0 26.031784 78.0 27.0 Z M 84.0 21.0 C 84.89643 21.0 86.02357 21.0 87.0 21.0 C 87.0 19.986723 87.0 18.997278 87.0 18.0 C 86.110115 18.0 84.968216 18.0 84.0 18.0 C 84.0 18.889889 84.0 20.031784 84.0 21.0 Z " />

<path style="fill:rgb(91.76471%,16.470589%,3.1372552%);fill-rule:evenodd;stroke:none;" name="Path No.50" d="M 75.0 28.332031 C 75.04015 28.959528 75.249626 29.541426 75.66797 30.0 C 76.43333 29.628946 77.577774 29.413418 78.270676 28.761627 C 78.51548 28.552681 78.847305 28.889992 79.22716 28.82652 C 79.74683 28.859358 80.454285 28.866879 81.0 29.0 C 81.457245 26.586666 82.87775 23.713552 83.0 21.0 C 82.24585 21.0 81.317856 21.0 80.5 21.0 C 79.90324 24.311098 77.36473 26.106064 75.0 28.332031 Z M 79.0 25.4375 C 79.359116 25.850351 79.64779 25.7395 80.0 25.5 C 79.64963 25.227404 79.33189 25.111198 79.0 25.4375 Z " />

<path style="fill:rgb(20.392157%,0.0%,0.0%);fill-rule:evenodd;stroke:none;" name="Path No.51" d="M 64.0 25.0 C 64.60588 25.0 65.34274 25.0 66.0 25.0 C 66.0 23.664818 66.0 22.324516 66.0 21.0 C 65.39412 21.0 64.65726 21.0 64.0 21.0 C 64.0 22.338127 64.0 23.668474 64.0 25.0 Z M 76.0 21.25 C 76.682304 22.401918 77.138504 23.63781 77.0 25.0 C 77.597115 25.0 78.35054 25.0 79.0 25.0 C 79.0 23.823263 79.0 22.27624 79.0 21.0 C 78.10734 21.0 76.96791 21.0 76.0 21.0 C 76.0 21.07176 76.0 21.17824 76.0 21.25 Z M 173.5 35.0 C 174.25522 33.73828 174.0637 31.580587 173.5 30.0 C 171.35014 31.553724 171.92502 33.664024 173.5 35.0 Z " />

<path style="fill:rgb(51.37255%,20.0%,5.098039%);fill-rule:evenodd;stroke:none;" name="Path No.52" d="M 65.5 26.0 C 66.27958 25.350851 66.852325 25.423527 67.5 26.0 C 68.18664 24.042933 68.14164 21.154247 67.5 19.0 C 66.788284 19.623407 65.94659 19.981655 65.0 20.0 C 65.10987 21.9151 64.73294 24.351002 65.5 26.0 Z " />

<path style="fill:rgb(36.862747%,0.0%,0.0%);fill-rule:evenodd;stroke:none;" name="Path No.53" d="M 65.5 23.0 C 66.12932 22.112986 65.99406 21.020939 66.0 20.0 C 65.396126 20.0 64.65001 20.0 64.0 20.0 C 63.873554 21.377613 64.58314 22.218336 65.5 23.0 Z M 189.0 27.25 C 189.68231 28.401918 190.1385 29.63781 190.0 31.0 C 190.59712 31.0 191.35054 31.0 192.0 31.0 C 192.0 29.823263 192.0 28.27624 192.0 27.0 C 191.10735 27.0 189.96791 27.0 189.0 27.0 C 189.0 27.07176 189.0 27.17824 189.0 27.25 Z " />

<path style="fill:rgb(65.4902%,23.137255%,5.098039%);fill-rule:evenodd;stroke:none;" name="Path No.54" d="M 80.0 21.0 C 80.89485 21.0 82.026344 21.0 83.0 21.0 C 82.97436 19.527853 83.15735 17.52223 82.5 16.0 C 81.776054 16.652029 80.90919 17.00348 80.0 17.0 C 80.0 18.338835 80.0 19.675205 80.0 21.0 Z M 84.5 20.0 C 85.172935 19.349598 85.93886 19.393959 86.5 20.0 C 86.91477 19.059372 87.01925 18.01665 87.0 17.0 C 86.108154 17.0 84.970505 17.0 84.0 17.0 C 83.983864 17.904747 84.052086 19.108774 84.5 20.0 Z " />

<path style="fill:rgb(0.0%,9.411765%,5.098039%);fill-rule:evenodd;stroke:none;" name="Path No.55" d="M 137.0 16.25 C 137.41408 17.018639 138.01572 18.009096 138.0 19.0 C 138.59712 19.0 139.35054 19.0 140.0 19.0 C 139.75084 17.753756 139.34766 16.125097 138.5 15.0 C 138.07457 15.431669 137.58824 15.829959 137.0 16.0 C 137.0 16.07176 137.0 16.17824 137.0 16.25 Z " />

<path style="fill:rgb(78.82353%,23.137255%,7.4509807%);fill-rule:evenodd;stroke:none;" name="Path No.56" d="M 75.0 21.0 C 76.013275 21.0 77.00272 21.0 78.0 21.0 C 78.0 19.986723 78.0 18.997278 78.0 18.0 C 77.110115 18.0 75.968216 18.0 75.0 18.0 C 75.0 18.889889 75.0 20.031784 75.0 21.0 Z M 79.0 25.0 C 79.89643 25.0 81.02357 25.0 82.0 25.0 C 82.0 24.394117 82.0 23.657259 82.0 23.0 C 80.87589 23.029442 79.96576 22.46014 79.0 22.0 C 79.0 22.900976 79.0 24.022696 79.0 25.0 Z " />

<path style="fill:rgb(91.76471%,23.137255%,6.2745104%);fill-rule:evenodd;stroke:none;" name="Path No.57" d="M 76.0 18.375 C 76.47825 19.063221 76.63513 19.912441 76.0 20.5 C 76.812256 20.961956 78.00037 21.013992 79.0 21.0 C 79.0 20.105146 79.0 18.973658 79.0 18.0 C 78.111046 18.0 76.96673 18.0 76.0 18.0 C 76.0 18.121319 76.0 18.263681 76.0 18.375 Z " />

<path style="fill:rgb(91.76471%,23.137255%,5.098039%);fill-rule:evenodd;stroke:none;" name="Path No.58" d="M 81.5 26.0 C 81.83462 25.149878 82.07524 23.893139 81.5 23.0 C 80.69075 23.789206 79.82884 23.409327 79.0 23.0 C 78.961105 24.661276 80.36207 25.191658 81.5 26.0 Z " />

<path style="fill:rgb(0.0%,0.0%,0.0%);fill-rule:evenodd;stroke:none;" name="Path No.59" d="M 10.0 17.5 C 10.0 18.018309 10.0 18.525604 10.0 19.0 C 16.338667 19.0 22.672 19.0 29.0 19.0 C 29.0 23.99896 29.0 29.00822 29.0 34.0 C 27.322165 34.0 25.669388 34.0 24.0 34.0 C 24.0 35.18758 24.0 36.710728 24.0 38.0 C 26.515965 37.96039 29.959732 38.078705 31.60722 36.1857 C 32.691917 33.771328 33.16926 31.22335 32.992634 28.56191 C 33.00463 26.622591 32.965622 24.66656 33.096607 22.735691 C 33.191612 21.952694 33.286575 20.948092 33.228466 20.09574 C 33.112827 19.441833 34.332367 19.478958 35.0 19.0 C 35.0 18.125565 35.0 16.95324 35.0 16.0 C 26.660343 16.0 18.32899 16.0 10.0 16.0 C 10.0 16.518309 10.0 17.025604 10.0 17.5 Z M 13.0 33.0 C 16.980215 32.47535 20.984688 31.933914 25.0 32.0 C 25.0 28.336369 25.0 24.651184 25.0 21.0 C 20.997503 21.0 16.98993 21.0 13.0 21.0 C 13.0 24.99537 13.0 29.00463 13.0 33.0 Z M 17.0 29.0 C 18.665337 29.0 20.339996 29.0 22.0 29.0 C 22.0 27.334663 22.0 25.660004 22.0 24.0 C 20.331451 24.0 18.668419 24.0 17.0 24.0 C 17.0 25.668549 17.0 27.331581 17.0 29.0 Z M 64.0 27.0 C 64.597115 27.0 65.35054 27.0 66.0 27.0 C 66.06218 24.648352 65.83505 22.310514 65.5 20.0 C 65.401726 21.320005 65.214455 22.618631 64.668976 23.816502 C 63.996616 24.73199 64.006424 25.937876 64.0 27.0 Z M 64.0 35.75 C 64.26329 36.65049 64.825516 37.368572 65.5 38.0 C 66.823784 36.295197 68.418785 34.075203 69.5 32.0 C 69.75315 32.71947 69.99928 33.41796 70.5 34.0 C 72.255356 31.985857 74.429054 30.908373 76.31958 29.038101 C 77.43121 27.947231 78.3649 26.709944 79.10194 25.353453 C 79.763145 23.91975 79.93421 22.916788 81.0 22.0 C 81.457565 22.30362 81.58563 22.507349 81.5 23.0 C 80.585335 25.826824 79.30032 28.516838 77.0 30.5 C 77.447586 30.947584 78.01473 31.51473 78.5 32.0 C 80.4639 30.205618 82.11516 28.218998 83.5 26.0 C 84.946396 27.830212 86.594246 30.279787 88.5 32.0 C 88.947586 31.552416 89.51473 30.98527 90.0 30.5 C 87.713234 28.230673 86.8244 25.08252 85.0 22.5 C 86.29212 22.052763 87.650696 21.983444 89.0 22.0 C 88.80617 19.975567 88.210815 18.020071 88.0 16.0 C 87.07059 16.100616 86.23106 16.421795 85.5 17.0 C 85.20648 16.364874 85.03069 15.691472 85.0 15.0 C 84.125565 15.0 82.95324 15.0 82.0 15.0 C 81.98332 16.683676 81.78738 18.346722 81.5 20.0 C 81.33183 18.991005 81.16682 18.000921 81.0 17.0 C 79.89166 17.109114 78.71459 16.59547 77.74283 16.636036 C 77.309875 16.572042 77.48143 16.109457 77.247925 15.873689 C 77.06264 15.507202 76.42159 15.269029 76.0 15.0 C 74.37059 16.283974 73.68886 18.277672 72.94505 20.162159 C 71.8819 22.200872 71.45344 23.212046 72.5 25.0 C 73.35005 24.188295 73.9089 23.175442 74.0 22.0 C 75.18758 22.0 76.71073 22.0 78.0 22.0 C 78.0 22.518309 78.0 23.025604 78.0 23.5 C 77.552414 23.947584 76.98527 24.51473 76.5 25.0 C 75.76939 24.354248 74.965485 24.040688 74.0 24.0 C 74.19364 25.0509 74.62274 26.405266 75.0 27.5 C 73.58273 28.76049 71.866776 29.632286 70.0 30.0 C 69.86497 25.896969 69.75532 21.398876 73.0 18.5 C 72.599236 18.23641 72.214455 17.936441 71.80645 17.70298 C 71.52854 17.457039 70.95496 17.94985 70.5 18.0 C 70.05355 17.049917 69.97265 16.035345 70.0 15.0 C 69.125565 15.0 67.95324 15.0 67.0 15.0 C 66.86796 22.049662 68.0487 30.201427 64.0 35.75 Z M 71.0 36.625 C 71.86842 37.37118 72.86707 37.863552 74.0 38.0 C 74.29712 36.811523 74.67708 35.291695 75.0 34.0 C 75.597115 34.0 76.35054 34.0 77.0 34.0 C 77.0 35.18758 77.0 36.710728 77.0 38.0 C 77.874435 38.0 79.04676 38.0 80.0 38.0 C 79.91673 37.15771 79.82325 36.123558 79.45079 35.271675 C 78.51069 33.05138 76.158646 32.72505 74.07082 33.523224 C 72.90765 34.066956 71.72425 35.34932 71.0 36.625 Z M 76.0 19.3125 C 76.37847 20.008018 77.40634 19.67272 78.0 19.5 C 77.4034 19.319855 76.66795 19.086329 76.0 19.0 C 76.0 19.116667 76.0 19.220833 76.0 19.3125 Z M 80.0 33.25 C 80.844185 35.242508 81.52231 37.889397 84.0 38.0 C 83.83898 36.797092 83.71884 35.209217 83.06566 34.02994 C 82.37057 32.91557 81.13758 33.024208 80.0 33.0 C 80.0 33.07176 80.0 33.17824 80.0 33.25 Z M 84.0 33.375 C 85.1429 34.688564 86.29616 36.54427 87.5 38.0 C 89.08012 36.603363 88.644424 34.103596 86.96925 32.93598 C 86.028465 32.276363 84.747604 32.496338 84.0 33.375 Z M 85.5 20.0 C 85.794556 19.357206 85.984505 18.701838 86.0 18.0 C 85.10621 18.081524 84.925545 18.796942 85.16667 19.481333 C 85.291115 19.674969 85.40222 19.847858 85.5 20.0 Z M 140.0 36.0 C 139.83786 34.823223 139.3088 33.85159 138.5 33.0 C 133.7646 34.393066 127.19598 34.224777 122.0 33.0 C 121.98762 31.219578 122.699135 29.697233 124.0 28.5 C 124.0 27.981691 124.0 27.474396 124.0 27.0 C 123.03718 26.963865 122.205154 26.656206 121.5 26.0 C 120.29278 27.519737 118.4294 29.349878 118.475624 31.281424 C 118.59066 32.275803 119.37351 33.377373 119.3649 34.492626 C 120.411514 34.883957 121.36907 35.298847 122.295425 35.820354 C 126.25996 37.209503 130.55922 37.071693 134.67828 36.768078 C 136.45897 36.595596 138.24095 36.29491 140.0 36.0 Z M 120.0 18.5 C 120.0 19.018309 120.0 19.525604 120.0 20.0 C 123.67099 20.089302 127.379845 19.81766 131.0 20.5 C 130.31773 20.670565 129.67464 20.83134 129.0 21.0 C 129.10933 22.239016 129.64874 23.230282 130.5 24.0 C 133.3583 21.695446 136.90536 20.307804 140.0 19.625 C 139.6879 18.556885 139.22862 17.186382 139.0 16.0 C 132.79745 17.519644 126.30453 16.806902 120.0 17.0 C 120.0 17.518309 120.0 18.025604 120.0 18.5 Z M 137.0 17.4375 C 137.35912 17.850351 137.64778 17.7395 138.0 17.5 C 137.64963 17.227404 137.3319 17.111198 137.0 17.4375 Z M 142.0 19.0 C 142.59712 19.0 143.35054 19.0 144.0 19.0 C 143.91216 16.861217 143.40611 13.794599 141.0 14.0 C 141.10365 15.534489 142.11502 17.295162 142.0 19.0 Z M 185.5 27.0 C 187.12956 28.056318 189.10538 27.979746 191.0 28.0 C 190.32529 31.555244 187.35677 34.039444 185.0 36.5 C 185.73784 37.23784 186.69698 38.196983 187.5 39.0 C 189.7858 36.660423 193.24269 33.694912 194.0 30.0 C 194.76709 30.152456 195.78215 29.961212 196.36375 30.424612 C 196.78433 30.063658 197.49535 29.821278 198.0 29.5 C 197.45587 28.002962 196.3964 27.306683 195.0 27.0 C 195.0 25.207138 195.0 22.947878 195.0 21.0 C 193.81242 21.0 192.28928 21.0 191.0 21.0 C 191.0 22.18758 191.0 23.710728 191.0 25.0 C 189.17767 25.039467 187.44576 24.607748 186.0 23.5 C 186.50687 21.02905 186.95662 18.527018 187.0 16.0 C 182.9972 16.0 178.98793 16.0 175.0 16.0 C 175.0 16.874435 175.0 18.04676 175.0 19.0 C 177.66586 19.0 180.33717 19.0 183.0 19.0 C 182.84808 20.701014 182.4042 22.345894 182.0 24.0 C 179.3735 24.285185 176.74063 25.038908 174.90077 26.975397 C 172.76385 29.199118 173.02763 32.203114 173.58661 35.060165 C 174.52771 37.36539 177.35178 36.47787 178.63443 35.43567 C 180.27394 34.34315 181.96303 32.41383 183.07977 30.59361 C 183.77351 29.314808 184.51077 28.073156 185.5 27.0 Z M 176.5 33.0 C 178.31165 31.415878 179.77594 29.545155 181.0 27.5 C 179.09326 26.797958 176.05194 28.635275 176.0894 30.902355 C 176.04424 31.633583 176.177 32.353065 176.5 33.0 Z " />

<path style="fill:rgb(51.37255%,5.098039%,0.0%);fill-rule:evenodd;stroke:none;" name="Path No.60" d="M 78.0 19.4375 C 78.359116 19.850351 78.64779 19.7395 79.0 19.5 C 78.64963 19.227404 78.33189 19.111198 78.0 19.4375 Z " />

<path style="fill:rgb(0.0%,5.098039%,3.1372552%);fill-rule:evenodd;stroke:none;" name="Path No.61" d="M 139.0 19.4375 C 139.35912 19.850351 139.64778 19.7395 140.0 19.5 C 139.64963 19.227404 139.3319 19.111198 139.0 19.4375 Z " />

<path style="fill:rgb(78.82353%,12.941177%,1.5686276%);fill-rule:evenodd;stroke:none;" name="Path No.62" d="M 86.0 19.4375 C 86.359116 19.850351 86.64779 19.7395 87.0 19.5 C 86.64963 19.227404 86.33189 19.111198 86.0 19.4375 Z " />

<path style="fill:rgb(65.4902%,9.411765%,0.0%);fill-rule:evenodd;stroke:none;" name="Path No.63" d="M 81.0 23.4375 C 81.359116 23.850351 81.64779 23.7395 82.0 23.5 C 81.64963 23.227404 81.33189 23.111198 81.0 23.4375 Z " />

<path style="fill:rgb(78.82353%,23.137255%,5.098039%);fill-rule:evenodd;stroke:none;" name="Path No.64" d="M 77.0 20.4375 C 77.359116 20.850351 77.64779 20.7395 78.0 20.5 C 77.64963 20.227404 77.33189 20.111198 77.0 20.4375 Z " />
</g>
</svg>
