<?xml version="1.0" encoding="UTF-8"?>
<svg xmlns="http://www.w3.org/2000/svg" xmlns:xlink="http://www.w3.org/1999/xlink" width="325.0pt" height="47.0pt" viewBox="0 0 325.0 47.0" version="1.1">

<defs>
<polycosvg ratio="1.000000" offsetx="0.000000" offsety="0.000000" />
</defs><g>
<path style="fill:rgb(26.274511%,60.784317%,60.000004%);fill-rule:evenodd;stroke:none;" name="Path No.65" d="M 0.0 47.0 C 108.3433 47.0 216.66737 47.0 325.0 47.0 C 325.0 31.331337 325.0 15.66333 325.0 0.0 C 216.6706 0.0 108.31874 0.0 0.0 0.0 C 0.0 15.664933 0.0 31.340677 0.0 47.0 Z M 11.0 26.5 C 11.030665 27.049606 11.186024 27.557516 11.5 28.0 C 13.337388 25.887667 14.551647 23.324583 16.342453 21.169676 C 17.05272 20.506851 17.595695 19.715103 18.19061 18.982517 C 20.147337 17.640875 21.282753 19.181421 22.584803 20.261219 C 24.59557 21.95048 26.343304 23.93075 28.234966 25.731482 C 29.921843 27.178703 31.759377 29.621574 34.0 29.5 C 31.624071 27.124071 29.26595 24.76595 26.897758 22.397758 C 25.673979 21.169708 24.4486 19.94212 23.20095 18.742397 C 22.08939 17.642952 21.016413 16.46293 19.5 16.0 C 16.133667 18.984491 13.725915 23.081026 11.0 26.5 Z M 67.0 18.4375 C 67.359116 18.850351 67.64779 18.7395 68.0 18.5 C 67.64963 18.227404 67.33189 18.111198 67.0 18.4375 Z M 68.0 20.4375 C 68.359116 20.850351 68.64779 20.7395 69.0 20.5 C 68.64963 20.227404 68.33189 20.111198 68.0 20.4375 Z M 69.5 24.0 C 69.794556 23.357206 69.984505 22.701838 70.0 22.0 C 69.10621 22.081524 68.925545 22.796942 69.16667 23.481333 C 69.27451 23.649132 69.401054 23.846033 69.5 24.0 Z M 70.0 33.4375 C 70.359116 33.85035 70.64779 33.739502 71.0 33.5 C 70.64963 33.2274 70.33189 33.1112 70.0 33.4375 Z M 72.0 32.3125 C 72.37847 33.00802 73.40634 32.67272 74.0 32.5 C 73.4034 32.319855 72.66795 32.08633 72.0 32.0 C 72.0 32.116665 72.0 32.220833 72.0 32.3125 Z M 74.5 20.0 C 74.794556 19.357206 74.984505 18.701838 75.0 18.0 C 74.10621 18.081524 73.925545 18.796942 74.16667 19.481333 C 74.291115 19.674969 74.40222 19.847858 74.5 20.0 Z M 75.0 21.4375 C 75.359116 21.850351 75.64779 21.7395 76.0 21.5 C 75.64963 21.227404 75.33189 21.111198 75.0 21.4375 Z M 75.0 31.4375 C 75.359116 31.850351 75.64779 31.7395 76.0 31.5 C 75.64963 31.227404 75.33189 31.111198 75.0 31.4375 Z M 80.0 26.625 C 80.731705 26.970592 81.39501 26.120771 81.665665 25.560993 C 81.77381 25.016874 81.70343 24.50455 81.5 24.0 C 81.33031 25.206915 80.62681 25.795372 80.0 26.625 Z M 82.5 23.0 C 82.794556 22.357206 82.984505 21.701838 83.0 21.0 C 82.10621 21.081524 81.925545 21.796942 82.16667 22.481333 C 82.291115 22.674969 82.40222 22.847858 82.5 23.0 Z M 83.5 20.0 C 83.92085 18.994545 84.37029 17.191729 83.0 17.0 C 82.97669 18.032642 83.1476 19.044611 83.5 20.0 Z M 125.0 33.0 C 125.597115 33.0 126.35054 33.0 127.0 33.0 C 127.0 28.997189 127.0 24.987928 127.0 21.0 C 128.45296 21.028461 129.8461 21.255281 131.24692 21.621252 C 132.59857 21.864862 133.8677 22.300213 135.0 22.5 C 133.00089 20.812094 129.78645 19.589184 127.0 19.0 C 127.0 16.91649 127.0 14.263713 127.0 12.0 C 126.402885 12.0 125.64946 12.0 125.0 12.0 C 125.0 19.003164 125.0 26.008522 125.0 33.0 Z M 136.0 23.375 C 136.44879 24.039097 137.32332 24.599993 138.0734 25.022942 C 138.62445 25.257336 139.3408 25.677803 140.0 25.5 C 138.99352 24.501638 137.4229 23.582481 136.0 23.0 C 136.0 23.121319 136.0 23.263681 136.0 23.375 Z M 173.0 16.25 C 173.96649 17.28795 176.06085 16.779406 177.58832 16.981709 C 179.38994 17.005388 181.20345 17.00071 183.0 17.0 C 183.0 22.338667 183.0 27.672 183.0 33.0 C 183.59712 33.0 184.35054 33.0 185.0 33.0 C 185.0 27.661333 185.0 22.328 185.0 17.0 C 188.35168 16.832415 191.6573 16.667135 195.0 16.5 C 191.64832 16.332415 188.3427 16.167135 185.0 16.0 C 185.0 14.81242 185.0 13.289272 185.0 12.0 C 184.40288 12.0 183.64946 12.0 183.0 12.0 C 183.0 13.18758 183.0 14.710728 183.0 16.0 C 181.17593 15.99952 179.41179 15.99808 177.59354 16.007198 C 176.12221 16.148783 174.30284 15.836374 173.0 16.25 Z M 173.0 30.375 C 174.06296 30.70414 175.0203 29.206919 175.91058 28.459972 C 176.79836 27.387747 177.39616 26.123253 177.88216 24.835632 C 178.28069 23.572826 178.76918 22.300179 178.5 21.0 C 176.83896 23.764816 175.58617 27.859047 173.0 30.375 Z M 194.0 31.0 C 194.71439 30.990044 195.38496 30.853634 196.0 30.5 C 193.13712 28.031092 192.52782 23.936039 190.5 21.0 C 189.95647 21.75776 190.20764 22.748005 190.5133 23.59066 C 190.86494 24.816336 191.44366 25.955742 192.09555 27.037434 C 192.7463 28.160282 193.79243 29.570631 194.0 31.0 Z M 233.0 33.0 C 233.59712 33.0 234.35054 33.0 235.0 33.0 C 235.0 28.997189 235.0 24.987928 235.0 21.0 C 236.45296 21.028461 237.8461 21.255281 239.24692 21.621252 C 240.59857 21.864862 241.8677 22.300213 243.0 22.5 C 241.00089 20.812094 237.78645 19.589184 235.0 19.0 C 235.0 16.91649 235.0 14.263713 235.0 12.0 C 234.40288 12.0 233.64946 12.0 233.0 12.0 C 233.0 19.003164 233.0 26.008522 233.0 33.0 Z M 244.0 23.375 C 244.44879 24.039097 245.32332 24.599993 246.0734 25.022942 C 246.62445 25.257336 247.3408 25.677803 248.0 25.5 C 246.99352 24.501638 245.4229 23.582481 244.0 23.0 C 244.0 23.121319 244.0 23.263681 244.0 23.375 Z M 281.0 32.4375 C 282.05447 32.66208 282.65936 31.66636 283.38348 31.007322 C 284.0566 30.360075 284.6186 29.64295 285.172 28.898111 C 287.7636 24.432467 289.03085 19.125185 289.0 14.0 C 287.8124 14.0 286.28928 14.0 285.0 14.0 C 284.87195 17.51013 285.7452 20.985636 285.52615 24.48393 C 285.32034 26.209883 284.80493 27.872078 283.80515 29.291172 C 283.13788 30.600883 281.84122 31.335619 281.0 32.4375 Z M 292.0 33.0 C 292.96283 33.036137 293.79483 33.343792 294.5 34.0 C 297.4198 31.349375 302.6241 29.687502 303.5 25.0 C 301.22137 27.057167 298.55368 30.630848 295.0 31.0 C 296.1759 25.061813 296.07703 19.00997 296.0 13.0 C 294.8124 13.0 293.28928 13.0 292.0 13.0 C 292.0 19.683905 292.0 26.325634 292.0 33.0 Z " />

<path style="fill:rgb(26.274511%,60.784317%,51.37255%);fill-rule:evenodd;stroke:none;" name="Path No.66" d="M 291.0 34.0 C 291.5971 34.0 292.35052 34.0 293.0 34.0 C 293.0 26.668219 293.0 19.321115 293.0 12.0 C 292.4029 12.0 291.64948 12.0 291.0 12.0 C 291.0 19.335691 291.0 26.677887 291.0 34.0 Z " />

<path style="fill:rgb(14.901961%,52.156864%,60.000004%);fill-rule:evenodd;stroke:none;" name="Path No.67" d="M 295.5 30.0 C 297.40228 28.00394 296.9514 24.27391 297.0 21.319279 C 297.0 18.217823 297.0 15.09653 297.0 12.0 C 296.4029 12.0 295.64948 12.0 295.0 12.0 C 295.0 15.071115 295.0 18.11817 295.0 21.183676 C 295.0 22.722761 295.0 24.251253 295.0 25.78125 C 295.03882 27.035355 294.94128 28.726927 295.5 30.0 Z " />

<path style="fill:rgb(18.82353%,60.784317%,60.000004%);fill-rule:evenodd;stroke:none;" name="Path No.68" d="M 288.5 23.0 C 289.7582 21.85257 290.07288 20.143587 290.0 18.515553 C 290.0 16.671558 290.0 14.828471 290.0 13.0 C 289.4029 13.0 288.64948 13.0 288.0 13.0 C 288.0 14.678396 288.0 16.35157 288.0 18.029463 C 288.08304 19.494415 287.79575 21.499922 288.5 23.0 Z " />

<path style="fill:rgb(26.274511%,60.784317%,42.7451%);fill-rule:evenodd;stroke:none;" name="Path No.69" d="M 285.5 23.0 C 286.15552 21.596434 285.9455 19.585377 286.0 17.951284 C 286.0 16.302008 286.0 14.649165 286.0 13.0 C 285.4029 13.0 284.64948 13.0 284.0 13.0 C 284.26263 16.272148 283.23737 20.841906 285.5 23.0 Z " />

<path style="fill:rgb(14.901961%,13.333334%,0.0%);fill-rule:evenodd;stroke:none;" name="Path No.70" d="M 30.0 18.5 C 29.265408 17.819122 28.633438 17.091644 28.499794 16.13551 C 28.362503 15.084374 29.364729 14.147958 30.0 13.5 C 28.699453 12.906158 26.321318 14.573816 26.475471 15.779682 C 26.454227 17.04258 27.834661 18.42742 29.160082 18.647009 C 29.406796 18.632078 29.73857 18.563934 30.0 18.5 Z M 196.0 10.5 C 195.4713 9.970674 194.81003 9.225369 194.0 9.0 C 193.97012 9.510576 194.03401 10.013775 194.28336 10.461603 C 194.66835 10.880716 195.27364 10.937127 195.76134 10.655437 C 195.85043 10.597407 195.93 10.545595 196.0 10.5 Z M 197.0 12.5 C 196.39783 12.140186 195.70432 11.963373 195.0 12.0 C 194.97543 12.486563 194.99783 12.976358 195.2471 13.408988 C 195.6784 13.78575 196.2472 13.256673 196.54471 12.955291 C 196.68135 12.818657 196.8574 12.642599 197.0 12.5 Z " />

<path style="fill:rgb(6.2745104%,0.0%,13.333334%);fill-rule:evenodd;stroke:none;" name="Path No.71" d="M 28.5 18.0 C 28.724272 17.095657 27.864285 16.02876 28.0 15.0 C 27.415232 15.0 26.632818 15.0 26.0 15.0 C 25.951721 16.914541 27.474918 17.096115 28.5 18.0 Z M 28.0 14.4375 C 28.359118 14.85035 28.647789 14.7395 29.0 14.5 C 28.649626 14.227404 28.331888 14.111199 28.0 14.4375 Z " />

<path style="fill:rgb(6.2745104%,34.11765%,51.37255%);fill-rule:evenodd;stroke:none;" name="Path No.72" d="M 30.0 13.25 C 30.936184 14.924043 31.33807 17.013092 30.0 18.5 C 31.452662 18.864454 32.81191 17.5977 32.773613 16.192987 C 32.900192 14.5586815 31.603384 13.14575 30.0 13.0 C 30.0 13.071759 30.0 13.178241 30.0 13.25 Z " />

<path style="fill:rgb(26.274511%,52.156864%,33.72549%);fill-rule:evenodd;stroke:none;" name="Path No.73" d="M 26.5 17.0 C 26.794552 16.357206 26.984505 15.7018385 27.0 15.0 C 26.10621 15.081524 25.925545 15.796942 26.166674 16.481333 C 26.291115 16.674969 26.402224 16.847858 26.5 17.0 Z " />

<path style="fill:rgb(6.2745104%,0.0%,0.0%);fill-rule:evenodd;stroke:none;" name="Path No.74" d="M 194.0 10.25 C 194.47546 11.105124 195.11519 11.961633 195.0 13.0 C 195.71169 12.971093 196.35855 12.804193 197.0 12.5 C 196.41382 11.793046 196.05098 10.917252 196.0 10.0 C 195.39613 10.0 194.65001 10.0 194.0 10.0 C 194.0 10.071759 194.0 10.178241 194.0 10.25 Z " />

<path style="fill:rgb(0.0%,13.333334%,33.72549%);fill-rule:evenodd;stroke:none;" name="Path No.75" d="M 31.5 18.0 C 32.108963 17.397877 32.81033 16.776943 32.76405 15.915998 C 32.53575 15.029927 31.87109 14.27941 31.0 14.0 C 31.114218 15.3615 30.719116 16.893444 31.5 18.0 Z " />

<path style="fill:rgb(22.352942%,34.11765%,13.333334%);fill-rule:evenodd;stroke:none;" name="Path No.76" d="M 31.5 18.0 C 31.747932 16.782272 32.658474 14.305563 31.0 14.0 C 30.927757 15.37675 31.103485 16.694757 31.5 18.0 Z " />

<path style="fill:rgb(18.82353%,24.313726%,0.0%);fill-rule:evenodd;stroke:none;" name="Path No.77" d="M 192.0 11.5 C 191.4713 10.970674 190.81003 10.225369 190.0 10.0 C 189.97012 10.510576 190.03401 11.013775 190.28336 11.461603 C 190.66835 11.880716 191.27364 11.937127 191.76134 11.655437 C 191.8409 11.603625 191.92044 11.551812 192.0 11.5 Z " />

<path style="fill:rgb(0.0%,0.0%,23.921568%);fill-rule:evenodd;stroke:none;" name="Path No.78" d="M 196.0 12.4375 C 196.35912 12.85035 196.64778 12.7395 197.0 12.5 C 196.64963 12.227404 196.3319 12.111199 196.0 12.4375 Z " />

<path style="fill:rgb(0.0%,0.0%,13.333334%);fill-rule:evenodd;stroke:none;" name="Path No.79" d="M 195.5 12.0 C 195.79456 11.357207 195.98451 10.7018385 196.0 10.0 C 195.10622 10.081524 194.92555 10.796942 195.16667 11.481334 C 195.26234 11.63021 195.40433 11.851124 195.5 12.0 Z " />

<path style="fill:rgb(0.0%,0.0%,0.0%);fill-rule:evenodd;stroke:none;" name="Path No.80" d="M 9.0 27.625 C 9.868422 28.371181 10.867071 28.86355 12.0 29.0 C 14.921632 26.869652 16.605902 22.061357 19.5 19.0 C 24.169464 23.669464 28.837114 28.337114 33.5 33.0 C 34.173298 31.707108 34.92424 30.50164 36.0 29.5 C 33.62407 27.124071 31.26595 24.76595 28.897758 22.397758 C 27.00088 20.574043 25.24666 18.579689 23.167564 16.961428 C 21.836998 15.848464 19.956741 14.574041 18.387732 15.727143 C 17.532413 16.521791 16.218744 17.31128 15.42728 18.32931 C 13.354753 20.890347 10.940333 24.45102 9.0 27.625 Z M 29.0 13.25 C 29.231085 13.803876 29.952805 14.044099 30.535799 14.280823 C 31.03278 14.4691725 31.53668 14.789498 32.0 14.5 C 31.237589 13.638532 30.201675 12.926065 29.0 13.0 C 29.0 13.071759 29.0 13.178241 29.0 13.25 Z M 29.0 18.25 C 29.420507 19.238237 30.371286 18.82456 31.031282 18.40062 C 31.387691 18.123343 31.692125 17.81954 32.0 17.5 C 31.087112 17.291958 30.047758 18.148357 29.0 18.0 C 29.0 18.07176 29.0 18.17824 29.0 18.25 Z M 65.0 17.25 C 65.67758 18.529095 66.714806 20.073586 67.217415 21.601702 C 67.765144 22.971697 68.46364 24.75159 69.5 26.0 C 70.22267 25.33035 71.088615 24.85276 72.0 24.5 C 70.5083 22.081594 69.78218 18.26589 67.5 16.0 C 66.78581 16.646156 65.95832 16.976469 65.0 17.0 C 65.0 17.07176 65.0 17.17824 65.0 17.25 Z M 68.0 32.25 C 68.447174 33.02209 68.939804 34.00656 69.0 35.0 C 79.34423 33.77532 85.010376 25.076199 85.0 16.0 C 84.125565 16.0 82.95324 16.0 82.0 16.0 C 81.90402 19.485058 80.45062 23.882576 78.135 26.91846 C 75.71811 29.982742 71.82794 31.643724 68.0 32.0 C 68.0 32.07176 68.0 32.17824 68.0 32.25 Z M 75.5 25.0 C 76.26943 24.392242 77.10085 24.067722 78.0 24.0 C 77.69295 22.347008 76.89562 20.879343 76.29493 19.328072 C 75.74438 17.916292 75.34046 16.471073 75.0 15.0 C 73.90198 15.068007 72.94466 15.498286 72.0 16.0 C 72.44025 18.878002 74.13364 22.19479 75.5 25.0 Z M 124.0 34.0 C 125.18758 34.0 126.71073 34.0 128.0 34.0 C 128.0 29.997189 128.0 25.987928 128.0 22.0 C 131.8244 22.704187 136.40965 25.131603 139.5 28.0 C 140.23784 27.262163 141.19698 26.303019 142.0 25.5 C 140.27592 23.658648 138.08319 22.512558 135.93623 21.28016 C 133.75076 19.963427 130.75192 18.518847 128.0 18.0 C 128.0 15.916491 128.0 13.263713 128.0 11.0 C 126.81242 11.0 125.28927 11.0 124.0 11.0 C 124.0 18.656967 124.0 26.348597 124.0 34.0 Z M 171.0 30.5 C 172.04657 31.766163 173.45638 32.589897 175.0 33.0 C 175.38306 31.07564 177.21564 29.306469 178.13995 27.395435 C 179.35275 25.193352 179.69994 22.634388 181.0 20.5 C 179.70787 20.052763 178.3493 19.983444 177.0 20.0 C 176.35268 23.588598 173.5243 27.656857 171.0 30.5 Z M 172.0 16.5 C 172.0 17.018309 172.0 17.525604 172.0 18.0 C 175.3264 18.0 178.67363 18.0 182.0 18.0 C 182.0 23.338667 182.0 28.672 182.0 34.0 C 183.18758 34.0 184.71072 34.0 186.0 34.0 C 186.0 28.661333 186.0 23.328 186.0 18.0 C 189.3264 18.0 192.67363 18.0 196.0 18.0 C 196.0 17.125565 196.0 15.9532385 196.0 15.0 C 194.6043 15.025289 193.30412 14.9283 192.0 14.5 C 192.5325 13.277962 192.23734 12.163595 192.0 11.0 C 191.40288 11.0 190.64946 11.0 190.0 11.0 C 190.29712 12.188477 190.67708 13.708304 191.0 15.0 C 189.32216 15.0 187.66939 15.0 186.0 15.0 C 186.0 13.81242 186.0 12.289272 186.0 11.0 C 184.81242 11.0 183.28928 11.0 182.0 11.0 C 182.0 12.18758 182.0 13.710728 182.0 15.0 C 178.66624 15.0 175.33174 15.0 172.0 15.0 C 172.0 15.51831 172.0 16.025604 172.0 16.5 Z M 188.0 21.25 C 189.51028 24.902884 191.56148 29.711401 194.5 33.0 C 195.2306 32.354248 196.03452 32.040688 197.0 32.0 C 196.69305 28.074429 192.57443 24.273537 192.0 20.0 C 190.54254 19.909264 189.2699 20.407103 188.0 21.0 C 188.0 21.07176 188.0 21.17824 188.0 21.25 Z M 195.0 11.4375 C 195.35912 11.85035 195.64778 11.7395 196.0 11.5 C 195.64963 11.227404 195.3319 11.111199 195.0 11.4375 Z M 232.0 34.0 C 233.18758 34.0 234.71072 34.0 236.0 34.0 C 236.0 29.997189 236.0 25.987928 236.0 22.0 C 239.8244 22.704187 244.40965 25.131603 247.5 28.0 C 248.23784 27.262163 249.19698 26.303019 250.0 25.5 C 248.27592 23.658648 246.08319 22.512558 243.93623 21.28016 C 241.75076 19.963427 238.75192 18.518847 236.0 18.0 C 236.0 15.916491 236.0 13.263713 236.0 11.0 C 234.81242 11.0 233.28928 11.0 232.0 11.0 C 232.0 18.656967 232.0 26.348597 232.0 34.0 Z M 279.0 32.34375 C 279.5047 33.102974 280.13046 34.073524 280.5 35.0 C 283.87433 32.630493 287.19125 29.925503 287.98477 25.91982 C 289.12186 21.712702 288.9935 17.309458 289.0 13.0 C 287.8124 13.0 286.28928 13.0 285.0 13.0 C 284.92072 16.884253 285.2137 20.814075 284.42422 24.642698 C 283.8487 27.929935 281.2753 30.200077 279.0 32.34375 Z M 306.0 24.5 C 304.7787 23.734282 303.40082 23.283623 302.0 23.0 C 301.4456 25.569073 298.51187 27.759682 296.5 30.0 C 295.6622 27.69977 296.23178 24.29663 296.0 21.446215 C 296.0 18.314459 296.0 15.131329 296.0 12.0 C 294.8124 12.0 293.28928 12.0 292.0 12.0 C 292.0 15.477976 292.0 18.96282 292.0 22.436954 C 292.0595 25.205292 291.8763 28.002314 292.19394 30.747238 C 292.4318 31.57087 292.39206 32.61188 292.6993 33.32237 C 293.64838 35.283802 295.31564 34.311596 296.74875 33.788773 C 300.64917 32.327248 303.35028 28.809834 305.36636 25.353495 C 305.60342 25.086302 305.814 24.799006 306.0 24.5 Z " />
</g>
</svg>
