<?xml version="1.0" encoding="UTF-8"?>
<svg xmlns="http://www.w3.org/2000/svg" xmlns:xlink="http://www.w3.org/1999/xlink" width="342.0pt" height="44.0pt" viewBox="0 0 342.0 44.0" version="1.1">

<defs>
<polycosvg ratio="1.000000" offsetx="0.000000" offsety="0.000000" />
</defs><g>
<path style="fill:rgb(25.098042%,21.960785%,83.52941%);fill-rule:evenodd;stroke:none;" name="Path No.81" d="M 0.0 44.0 C 114.0 44.0 228.0 44.0 342.0 44.0 C 342.0 29.327492 342.0 14.667175 342.0 0.0 C 227.992 0.0 113.992 0.0 0.0 0.0 C 0.0 14.671773 0.0 29.331963 0.0 44.0 Z M 20.0 11.25 C 20.867987 12.231827 22.721077 11.833359 24.134016 11.974833 C 28.415905 12.021509 32.722157 11.98688 37.0 12.0 C 37.028206 15.752977 35.788567 20.880232 32.509083 23.64294 C 29.3327 26.4406 25.036232 27.37119 21.0 28.0 C 21.0 28.597118 21.0 29.350538 21.0 30.0 C 25.139704 29.04706 30.706984 27.511744 34.106617 24.088564 C 37.589687 20.695179 38.99504 15.633376 38.0 11.0 C 34.992924 11.0 32.002182 11.0 29.0 11.0 C 27.416992 10.998466 25.863014 10.99921 24.29598 11.006972 C 23.039803 11.144574 21.3243 10.827191 20.0 11.25 Z M 76.0 16.25 C 76.87585 17.231853 78.73063 16.833416 80.137115 16.974861 C 84.75843 17.02321 89.39036 16.985168 94.0 17.0 C 93.780945 20.430103 92.25335 23.628525 89.50748 25.682756 C 86.845505 28.039722 83.11788 28.163511 80.0 29.5 C 86.291306 30.801851 93.72138 24.85601 95.186424 19.139105 C 95.49547 18.103016 95.74327 17.045893 96.0 16.0 C 92.58777 16.0 89.20166 16.0 85.8 16.0 C 84.031525 15.999163 82.264114 15.9987 80.49707 16.00641 C 79.180786 16.150763 77.391754 15.822714 76.0 16.25 Z M 77.0 10.3125 C 77.900406 11.18912 79.72773 10.726565 81.08665 10.888312 C 85.72883 10.77485 90.3661 10.621751 95.0 10.5 C 91.782776 10.408731 88.621086 10.319037 85.40386 10.227769 C 83.795685 10.199995 82.15383 10.110961 80.54629 10.110247 C 79.32217 10.103389 78.15503 10.000563 77.0 10.3125 Z M 129.0 29.25 C 129.4205 30.238237 130.37129 29.82456 131.03128 29.40062 C 131.3877 29.123343 131.69212 28.81954 132.0 28.5 C 131.08711 28.291958 130.04776 29.148357 129.0 29.0 C 129.0 29.07176 129.0 29.17824 129.0 29.25 Z M 131.0 10.25 C 131.75922 11.166743 133.34909 10.897246 134.61343 10.965415 C 138.07715 11.022402 141.53838 10.989126 145.0 11.0 C 144.59462 17.236553 137.55733 22.616571 133.0 27.5 C 133.98692 27.704346 134.83116 26.647825 135.67516 25.992449 C 137.68808 24.524315 140.22643 22.287603 143.0 22.0 C 142.75858 17.561382 146.63586 14.248207 147.0 10.0 C 144.18216 10.0 141.41457 10.0 138.6 10.0 C 137.39958 10.000565 135.88158 10.005137 134.5775 10.013391 C 133.52347 10.115258 132.09793 9.871812 131.0 10.25 Z M 143.0 22.458332 C 145.36879 25.086355 148.1025 27.398813 150.5 30.0 C 150.63329 29.05897 149.69011 28.280104 149.0294 27.585873 C 148.21155 26.650372 147.0057 25.548056 146.07404 24.574038 C 145.21321 23.765245 144.1625 22.574121 143.0 22.0 C 143.0 22.17111 143.0 22.323889 143.0 22.458332 Z M 183.0 19.25 C 183.7518 20.122444 184.66734 19.937532 185.64075 19.938189 C 188.4309 20.027449 191.22179 19.993155 194.0 20.0 C 194.0104 21.682728 193.99265 23.386929 194.5 25.0 C 195.32266 23.4532 195.92752 21.759401 196.0 20.0 C 199.35168 19.832415 202.6573 19.667135 206.0 19.5 C 202.64832 19.332415 199.3427 19.167135 196.0 19.0 C 196.04825 16.15436 195.73074 12.906589 198.0 11.5 C 195.96461 10.8953705 193.85796 11.402666 191.82242 11.737299 C 189.88904 12.065773 187.94296 12.315822 186.0 12.5 C 188.64967 12.778096 191.33603 12.993467 194.0 13.0 C 194.0 14.792863 194.0 17.052122 194.0 19.0 C 192.16911 19.004606 190.37132 18.994368 188.55522 19.00308 C 186.77461 19.179811 184.5836 18.786804 183.0 19.25 Z M 188.0 29.25 C 188.4205 30.238237 189.37129 29.82456 190.03128 29.40062 C 190.3877 29.123343 190.69212 28.81954 191.0 28.5 C 190.08711 28.291958 189.04776 29.148357 188.0 29.0 C 188.0 29.07176 188.0 29.17824 188.0 29.25 Z M 192.0 27.625 C 192.7317 27.970592 193.39502 27.120771 193.66566 26.560993 C 193.7738 26.016874 193.70343 25.50455 193.5 25.0 C 193.3303 26.206915 192.6268 26.795372 192.0 27.625 Z M 199.0 10.3125 C 199.36687 11.045143 200.41898 10.806077 201.06024 10.679003 C 201.36975 10.620047 201.69963 10.557213 202.0 10.5 C 201.003 10.328723 200.00952 10.085725 199.0 10.0 C 199.0 10.116667 199.0 10.220834 199.0 10.3125 Z M 239.0 15.4375 C 239.35912 15.85035 239.64778 15.7395 240.0 15.5 C 239.64963 15.227404 239.3319 15.111199 239.0 15.4375 Z M 240.5 19.0 C 240.79456 18.357206 240.98451 17.701838 241.0 17.0 C 240.10622 17.081524 239.92555 17.796942 240.16667 18.481333 C 240.2745 18.649132 240.40105 18.846033 240.5 19.0 Z M 241.0 20.4375 C 241.35912 20.850351 241.64778 20.7395 242.0 20.5 C 241.64963 20.227404 241.3319 20.111198 241.0 20.4375 Z M 244.0 29.332031 C 244.72397 30.026083 246.12788 29.396526 247.09694 29.007998 C 247.80157 28.543108 248.72147 27.878416 248.5 27.0 C 247.4566 28.072174 245.58463 28.767868 244.0 29.0 C 244.0 29.123959 244.0 29.234636 244.0 29.332031 Z M 245.0 14.4375 C 245.35912 14.85035 245.64778 14.7395 246.0 14.5 C 245.64963 14.227404 245.3319 14.111199 245.0 14.4375 Z M 246.0 16.4375 C 246.35912 16.850351 246.64778 16.7395 247.0 16.5 C 246.64963 16.227404 246.3319 16.111198 246.0 16.4375 Z M 247.5 20.0 C 247.79456 19.357206 247.98451 18.701838 248.0 18.0 C 247.10622 18.081524 246.92555 18.796942 247.16667 19.481333 C 247.2745 19.649132 247.40105 19.846033 247.5 20.0 Z M 252.0 23.4375 C 252.35912 23.850351 252.64778 23.7395 253.0 23.5 C 252.64963 23.227404 252.3319 23.111198 252.0 23.4375 Z M 253.0 21.4375 C 253.35912 21.850351 253.64778 21.7395 254.0 21.5 C 253.64963 21.227404 253.3319 21.111198 253.0 21.4375 Z M 254.5 20.0 C 254.92085 18.994545 255.3703 17.191729 254.0 17.0 C 253.97668 18.032642 254.1476 19.044611 254.5 20.0 Z M 255.5 16.0 C 255.79456 15.357207 255.98451 14.7018385 256.0 14.0 C 255.10622 14.081524 254.92555 14.796942 255.16667 15.481334 C 255.2745 15.649132 255.40105 15.846033 255.5 16.0 Z M 292.0 19.46875 C 292.3768 19.857378 292.64877 19.738623 293.0 19.5 C 294.13828 18.395021 295.5141 16.954515 296.66574 15.684603 C 300.23993 11.205502 305.0617 11.939689 310.0 12.0 C 309.86066 15.773727 308.51974 19.60163 305.9167 22.383545 C 304.5837 23.877716 302.90616 25.002697 301.1155 25.85745 C 299.62302 26.572727 297.52274 27.277187 296.0 28.5 C 298.10388 29.283735 300.8431 27.3737 303.03195 26.386333 C 305.21686 25.147915 307.14694 23.470425 308.7081 21.517424 C 311.04846 18.554827 311.92798 14.695739 312.0 11.0 C 308.34244 11.0 304.65726 11.0 301.0 11.0 C 301.00684 9.956254 300.95377 8.944946 300.5 8.0 C 299.26566 9.732557 298.1756 12.263336 296.7815 14.163275 C 295.53766 16.26376 293.50183 17.640625 292.0 19.46875 Z " />

<path style="fill:rgb(14.509805%,5.098039%,0.0%);fill-rule:evenodd;stroke:none;" name="Path No.82" d="M 43.0 12.5 C 41.6993 10.948235 42.247982 8.745726 41.5 7.0 C 39.71269 8.324754 39.40692 11.657997 41.571644 12.456339 C 42.0338 12.778977 42.541424 12.686591 43.0 12.5 Z " />

<path style="fill:rgb(5.490196%,12.549021%,71.76471%);fill-rule:evenodd;stroke:none;" name="Path No.83" d="M 41.5 11.0 C 41.920856 9.994544 42.370293 8.191729 41.0 8.0 C 40.976692 9.032642 41.147594 10.04461 41.5 11.0 Z " />

<path style="fill:rgb(0.0%,0.0%,33.333336%);fill-rule:evenodd;stroke:none;" name="Path No.84" d="M 44.5 12.0 C 45.108963 11.397878 45.81033 10.776943 45.76405 9.915998 C 45.53575 9.029927 44.87109 8.27941 44.0 8.0 C 44.114216 9.3615 43.719116 10.893444 44.5 12.0 Z " />

<path style="fill:rgb(25.490198%,15.294118%,33.333336%);fill-rule:evenodd;stroke:none;" name="Path No.85" d="M 44.5 12.0 C 44.747932 10.782272 45.658474 8.305563 44.0 8.0 C 43.927757 9.37675 44.103485 10.6947565 44.5 12.0 Z " />

<path style="fill:rgb(25.490198%,21.960785%,59.607845%);fill-rule:evenodd;stroke:none;" name="Path No.86" d="M 254.5 16.0 C 255.12932 15.112986 254.99405 14.02094 255.0 13.0 C 254.39613 13.0 253.65001 13.0 253.0 13.0 C 252.87355 14.377613 253.58313 15.218336 254.5 16.0 Z " />

<path style="fill:rgb(0.0%,0.0%,0.0%);fill-rule:evenodd;stroke:none;" name="Path No.87" d="M 19.0 11.5 C 19.0 12.01831 19.0 12.525603 19.0 13.0 C 24.660074 13.0 30.345259 13.0 36.0 13.0 C 35.746544 16.33644 34.05361 20.637571 31.133469 22.964975 C 27.974072 25.510645 23.889637 26.407337 20.0 27.0 C 20.0 28.18758 20.0 29.710728 20.0 31.0 C 24.682404 30.760506 30.83486 28.93005 34.715405 25.443068 C 36.599186 23.73397 37.84614 21.449724 38.739857 19.100111 C 39.81114 16.624979 39.73584 13.803998 41.0 11.5 C 40.32049 11.277615 39.92402 11.599217 39.5 12.0 C 37.983192 9.583098 33.470703 10.039718 30.015753 10.0 C 26.339188 10.0 22.672293 10.0 19.0 10.0 C 19.0 10.51831 19.0 11.025603 19.0 11.5 Z M 44.0 7.5 C 43.14047 7.242572 41.98812 6.9666057 41.0 7.0 C 40.975437 7.4865623 40.997826 7.9763584 41.247097 8.408988 C 41.613792 8.734762 42.119934 8.299666 42.450714 8.114631 C 42.928417 7.8079495 43.460514 7.628334 44.0 7.5 Z M 41.0 12.25 C 41.604965 13.302584 43.21334 12.87741 44.02493 12.401369 C 44.387287 12.124657 44.69207 11.820556 45.0 11.5 C 43.7841 11.345784 42.508835 12.295909 41.0 12.0 C 41.0 12.071759 41.0 12.178241 41.0 12.25 Z M 44.0 8.4375 C 44.35912 8.85035 44.64779 8.7395 45.0 8.5 C 44.649624 8.227404 44.33189 8.111199 44.0 8.4375 Z M 75.0 16.5 C 75.0 17.018309 75.0 17.525604 75.0 18.0 C 78.01021 18.0 81.00095 18.0 84.0 18.0 C 86.99555 18.182524 90.09178 17.717827 93.0 18.5 C 92.10382 19.76674 91.67673 21.25381 90.70508 22.423218 C 87.74553 26.39213 82.757385 27.844446 78.0 28.0 C 78.02891 28.711681 78.19581 29.358545 78.5 30.0 C 80.67429 31.31543 84.13425 30.445738 86.84461 29.694822 C 89.275764 28.85162 92.16047 27.066683 93.87781 24.806932 C 96.12687 22.050932 96.697754 18.476309 97.0 15.0 C 89.66133 15.0 82.328 15.0 75.0 15.0 C 75.0 15.51831 75.0 16.025604 75.0 16.5 Z M 76.0 10.5 C 76.0 11.01831 76.0 11.525603 76.0 12.0 C 82.66931 12.0 89.33602 12.0 96.0 12.0 C 96.0 11.125565 96.0 9.9532385 96.0 9.0 C 89.33247 9.0 82.66219 9.0 76.0 9.0 C 76.0 9.51831 76.0 10.025603 76.0 10.5 Z M 127.0 29.458252 C 127.65959 30.275343 128.7192 31.162981 129.5 32.0 C 133.5064 29.020168 137.98608 26.636679 141.5 23.0 C 144.5053 26.005297 147.50111 29.001116 150.5 32.0 C 151.23784 31.262163 152.19698 30.303019 153.0 29.5 C 149.93361 26.6187 147.16872 23.432161 144.0 20.666666 C 144.52814 18.744452 145.6547 17.08968 146.62418 15.386711 C 147.47371 13.760748 148.07497 12.050516 149.0 10.5 C 146.8097 8.717552 142.92554 9.089107 139.7197 9.0 C 136.47954 9.0 133.23364 9.0 130.0 9.0 C 130.0 9.874435 130.0 11.0467615 130.0 12.0 C 132.42053 12.004598 134.82274 11.994392 137.23232 12.003028 C 139.23811 12.079271 141.88545 11.880818 144.0 12.5 C 143.00128 13.984584 141.84406 15.9316435 140.60852 17.442183 C 138.47305 20.09147 136.05937 22.533895 133.56284 24.829653 C 132.53821 25.733212 131.47346 26.578846 130.29541 27.273285 C 129.31778 27.935083 127.79558 28.433943 127.0 29.458252 Z M 182.0 19.5 C 182.0 20.018309 182.0 20.525604 182.0 21.0 C 185.67145 21.0 189.32884 21.0 193.0 21.0 C 193.0 21.518309 193.0 22.025604 193.0 22.5 C 191.65889 26.56481 188.2502 27.833967 185.0 29.5 C 185.60776 30.269436 185.93228 31.100853 186.0 32.0 C 191.57487 30.893007 196.8906 26.727076 197.0 21.0 C 200.3264 21.0 203.67363 21.0 207.0 21.0 C 207.0 20.125565 207.0 18.95324 207.0 18.0 C 203.6736 18.0 200.32637 18.0 197.0 18.0 C 197.0 16.322165 197.0 14.669388 197.0 13.0 C 198.4173 12.654205 199.79482 12.306245 201.19666 11.939839 C 202.34244 11.582205 203.95364 11.305676 205.0 10.5 C 204.29004 9.790112 203.36739 8.859703 202.6875 8.0 C 199.93402 8.676851 196.59123 10.173905 193.43526 10.318097 C 190.31908 10.907445 187.05789 10.668846 184.0 11.5 C 184.60776 12.269436 184.93228 13.100853 185.0 14.0 C 187.66586 14.0 190.33717 14.0 193.0 14.0 C 193.0 15.18758 193.0 16.710728 193.0 18.0 C 189.314 18.0 185.6751 18.0 182.0 18.0 C 182.0 18.518309 182.0 19.025604 182.0 19.5 Z M 237.0 14.25 C 238.4894 16.968195 239.86063 19.808874 240.0 23.0 C 241.2785 22.759098 242.78864 22.219294 244.0 21.5 C 241.5036 18.787586 242.20103 12.688022 237.0 14.0 C 237.0 14.071759 237.0 14.178241 237.0 14.25 Z M 240.0 29.75 C 240.261 30.629591 240.73534 31.337374 241.25 32.0 C 243.32149 31.413036 246.08945 30.844194 248.13803 29.635876 C 250.92021 27.947428 253.15718 25.34774 254.66298 22.487665 C 256.09332 19.534237 256.7474 16.24826 257.0 13.0 C 256.12558 13.0 254.95323 13.0 254.0 13.0 C 253.61307 16.366056 252.50652 20.809164 250.1854 23.782429 C 247.85529 26.234236 243.74345 28.552006 240.0 29.0 C 240.0 29.22592 240.0 29.515072 240.0 29.75 Z M 243.0 13.25 C 243.67758 14.529096 244.71481 16.073586 245.2174 17.601702 C 245.76514 18.971697 246.46364 20.75159 247.5 22.0 C 248.22267 21.33035 249.08862 20.85276 250.0 20.5 C 248.5083 18.081594 247.78218 14.26589 245.5 12.0 C 244.78581 12.646155 243.95831 12.976469 243.0 13.0 C 243.0 13.071759 243.0 13.178241 243.0 13.25 Z M 290.0 19.578125 C 290.2319 20.587963 290.8042 21.357883 291.5 22.0 C 292.79114 21.113983 294.4658 20.08914 295.60376 18.781094 C 296.59222 17.825624 297.51587 16.81502 298.46393 15.8302555 C 301.0118 12.686998 305.1899 12.8890505 309.0 13.0 C 308.38263 16.569012 306.6138 19.914526 303.93533 22.334871 C 301.16116 24.801924 297.53394 26.089663 294.0 27.0 C 294.29712 28.188477 294.67706 29.708303 295.0 31.0 C 299.36917 30.044098 304.84583 27.481194 308.34952 24.051552 C 312.18307 20.427109 313.22528 15.049276 313.0 10.0 C 311.1758 9.999887 309.36508 10.004386 307.5539 9.987181 C 305.68866 9.957857 303.7843 10.027965 302.0 9.5 C 302.60776 8.730564 302.93228 7.8991475 303.0 7.0 C 301.35794 7.137521 299.0803 7.4567523 298.52814 8.969585 C 297.30902 10.980771 295.95007 12.952584 294.503 14.792472 C 293.78214 15.629143 293.02518 16.435236 292.25928 17.213135 C 291.61206 18.031431 290.51392 18.744034 290.0 19.578125 Z " />
</g>
</svg>
