<?xml version="1.0" encoding="UTF-8"?>
<svg xmlns="http://www.w3.org/2000/svg" xmlns:xlink="http://www.w3.org/1999/xlink" width="210.0pt" height="46.0pt" viewBox="0 0 210.0 46.0" version="1.1">

<defs>
<polycosvg ratio="1.000000" offsetx="0.000000" offsety="0.000000" />
</defs><g>
<path style="fill:rgb(1.9607844%,61.960785%,16.862745%);fill-rule:evenodd;stroke:none;" name="Path No.88" d="M 0.0 46.0 C 70.02189 46.0 139.99411 46.0 210.0 46.0 C 210.0 30.651293 210.0 15.338041 210.0 0.0 C 140.00786 0.0 69.99214 0.0 0.0 0.0 C 0.0 15.331394 0.0 30.678223 0.0 46.0 Z M 12.0 12.4375 C 12.359118 12.85035 12.647789 12.7395 13.0 12.5 C 12.649625 12.227404 12.331889 12.111199 12.0 12.4375 Z M 13.0 15.25 C 13.760195 16.07831 14.961392 15.934158 16.0 16.0 C 16.024204 17.795206 15.994533 20.061445 15.533317 21.965122 C 15.167026 23.697582 14.3574915 25.281513 14.0 27.0 C 16.278765 27.741093 16.235115 30.335524 16.5 33.0 C 16.6559 30.993118 16.817253 29.017803 17.02272 27.021065 C 17.41049 22.281418 17.055616 16.194597 16.5 11.0 C 16.332476 12.340191 16.166475 13.668197 16.0 15.0 C 15.004887 15.039296 13.953302 14.943426 13.0 15.25 Z M 22.0 31.25 C 22.786808 32.152893 24.02564 31.910202 25.115217 31.953455 C 28.042547 31.800411 31.888523 32.33174 35.0 31.5 C 33.593727 29.118317 34.23042 25.22391 34.0 22.090284 C 34.0 18.723387 34.0 15.360296 34.0 12.0 C 30.673595 12.0 27.326372 12.0 24.0 12.0 C 24.0 18.338667 24.0 24.672 24.0 31.0 C 23.399254 31.005856 22.611336 31.004358 22.0 31.25 Z M 25.0 24.0 C 27.084717 24.0 29.737494 24.0 32.0 24.0 C 32.0 20.339926 32.0 16.654741 32.0 13.0 C 29.66382 13.0 27.327454 13.0 25.0 13.0 C 25.0 16.682096 25.0 20.32806 25.0 24.0 Z M 25.0 31.0 C 27.327404 31.0 29.683264 31.0 32.0 31.0 C 32.0 29.229063 32.0 26.930937 32.0 25.0 C 29.656424 25.0 27.32994 25.0 25.0 25.0 C 25.0 26.998514 25.0 29.017485 25.0 31.0 Z M 67.0 17.25 C 67.83427 18.208815 69.64481 17.855885 71.009575 17.974377 C 72.47776 18.004555 74.403076 18.003986 76.0 18.0 C 76.0 19.18758 76.0 20.710728 76.0 22.0 C 77.883484 22.01478 79.498985 22.993784 81.0 23.5 C 79.74214 21.928284 79.17647 19.990341 79.0 18.0 C 81.993904 17.833672 85.00729 17.666262 88.0 17.5 C 84.64368 17.341389 81.35126 17.089258 78.0 17.0 C 77.83335 15.000244 77.66655 12.998573 77.5 11.0 C 77.33335 12.999756 77.16655 15.001427 77.0 17.0 C 75.175934 16.999521 73.41179 16.99808 71.59354 17.007198 C 70.1222 17.148783 68.30284 16.836374 67.0 17.25 Z M 67.0 30.25 C 67.42051 31.238237 68.371284 30.82456 69.03128 30.40062 C 69.387695 30.123343 69.69212 29.81954 70.0 29.5 C 69.08711 29.291958 68.04776 30.148357 67.0 30.0 C 67.0 30.07176 67.0 30.17824 67.0 30.25 Z M 71.0 28.5 C 71.92018 28.622717 72.37043 27.939148 72.9991 27.471943 C 73.85552 26.67462 74.54725 25.698177 75.11586 24.688656 C 75.55023 23.825228 75.82754 22.945673 75.5 22.0 C 74.88593 23.036009 74.37489 24.44916 73.62862 25.534584 C 72.947075 26.709852 71.826195 27.483675 71.0 28.5 Z M 81.0 25.46875 C 81.9449 26.526533 83.25509 27.759403 84.405914 28.790152 C 85.37149 29.511366 86.670586 30.521126 88.0 30.5 C 86.81499 29.488865 85.505775 28.702091 84.307144 27.71274 C 83.1912 26.827028 82.274994 25.665768 81.0 25.0 C 81.0 25.134548 81.0 25.334202 81.0 25.46875 Z M 122.5 30.0 C 122.54308 29.14412 122.15488 28.08147 122.043976 27.138397 C 122.00352 26.069267 121.89043 24.991154 121.5 24.0 C 119.52722 25.52338 120.04107 27.45105 121.36566 28.834547 C 121.69189 29.198784 122.12636 29.629833 122.5 30.0 Z M 122.0 13.25 C 125.31044 15.972873 131.43161 11.61046 133.5 16.0 C 134.55797 15.285392 135.99031 14.471145 137.0 13.5 C 135.00194 12.66848 132.04097 13.227842 129.55222 13.0 C 127.33924 13.242905 124.36201 12.681627 122.0 13.25 Z M 122.0 23.4375 C 122.359116 23.850351 122.64779 23.7395 123.0 23.5 C 122.64963 23.227404 122.33189 23.111198 122.0 23.4375 Z M 125.0 30.3125 C 125.77975 31.052517 126.890144 30.799892 127.88553 30.87983 C 130.92966 30.783665 133.95683 30.612377 137.0 30.5 C 135.02303 30.414968 132.54292 30.308298 130.4061 30.21639 C 128.80281 30.280066 126.7025 29.855593 125.0 30.3125 Z M 138.0 29.4375 C 138.35912 29.850351 138.64778 29.7395 139.0 29.5 C 138.64963 29.227404 138.3319 29.111198 138.0 29.4375 Z M 176.5 31.0 C 178.62134 30.278933 180.48126 27.882696 181.84993 25.933067 C 183.09215 24.00448 184.00323 21.665997 186.0 21.0 C 186.0 18.010054 186.0 14.977646 186.0 12.0 C 183.00531 12.08428 179.98378 12.339754 177.0 12.5 C 179.66838 12.666774 182.3374 12.833588 185.0 13.0 C 184.62862 15.348142 184.19292 17.634901 184.0 20.0 C 182.6518 20.002102 181.3017 20.168587 180.0 20.5 C 180.46683 21.000776 181.26105 21.207273 181.74393 21.610506 C 181.70721 22.442934 181.58144 23.50625 181.30382 24.372253 C 180.46747 27.64034 177.96713 29.048223 175.0 29.0 C 174.95172 27.650974 174.98692 26.715607 174.0 26.0 C 174.06784 27.986132 175.08809 29.64864 176.5 31.0 Z M 175.0 24.4375 C 175.35912 24.850351 175.64778 24.7395 176.0 24.5 C 175.64963 24.227404 175.3319 24.111198 175.0 24.4375 Z M 188.0 21.25 C 188.83228 22.157284 190.65193 21.88709 192.0 22.0 C 191.98715 23.502863 192.07286 25.412336 192.5 27.0 C 193.1662 25.406456 194.41364 24.17686 196.0 23.5 C 193.85944 22.510197 193.8223 19.42946 193.5 17.0 C 193.33247 18.34019 193.16647 19.668198 193.0 21.0 C 191.51091 21.15756 189.57553 20.801294 188.0 21.25 Z M 188.0 31.5 C 189.16287 31.819355 190.31735 29.961035 191.0119 29.368572 C 191.48915 28.654829 191.8784 27.805151 191.5 27.0 C 190.93349 29.20098 189.15413 29.948853 188.0 31.5 Z " />

<path style="fill:rgb(1.1764706%,14.117648%,0.0%);fill-rule:evenodd;stroke:none;" name="Path No.89" d="M 30.0 18.25 C 30.936184 19.924044 31.33807 22.013092 30.0 23.5 C 31.012873 23.888262 32.004242 24.01476 33.0 24.0 C 33.0 22.229063 33.0 19.930937 33.0 18.0 C 32.094036 18.0 30.983845 18.0 30.0 18.0 C 30.0 18.07176 30.0 18.17824 30.0 18.25 Z M 30.0 25.25 C 30.936184 26.924044 31.33807 29.013092 30.0 30.5 C 31.012873 30.888262 32.004242 31.01476 33.0 31.0 C 33.0 29.229063 33.0 26.930937 33.0 25.0 C 32.094036 25.0 30.983845 25.0 30.0 25.0 C 30.0 25.07176 30.0 25.17824 30.0 25.25 Z " />

<path style="fill:rgb(0.0%,24.705883%,12.156863%);fill-rule:evenodd;stroke:none;" name="Path No.90" d="M 143.0 14.0 C 143.60588 14.0 144.34274 14.0 145.0 14.0 C 144.93817 12.725478 144.2876 11.289491 143.0 11.0 C 143.0 11.996182 143.0 13.009131 143.0 14.0 Z " />

<path style="fill:rgb(0.0%,0.0%,0.0%);fill-rule:evenodd;stroke:none;" name="Path No.91" d="M 10.0 29.5 C 11.424035 30.581774 13.512599 28.755873 14.5 28.0 C 15.215214 29.578442 14.857988 31.99539 15.0 34.0 C 15.874435 34.0 17.04676 34.0 18.0 34.0 C 17.997133 32.387985 17.995665 30.807323 18.021605 29.203255 C 18.049679 27.771374 17.941822 26.310562 18.5 25.0 C 19.028624 25.520779 19.927883 25.834148 20.37625 26.399782 C 20.925636 26.058544 21.417593 25.708628 22.0 25.5 C 20.412706 24.013575 19.189442 22.292044 18.0 20.5 C 19.292126 20.052763 20.650694 19.983444 22.0 20.0 C 22.0 19.402882 22.0 18.649462 22.0 18.0 C 20.81242 18.0 19.289272 18.0 18.0 18.0 C 18.0 15.33413 18.0 12.662834 18.0 10.0 C 17.125565 10.0 15.9532385 10.0 15.0 10.0 C 14.929071 11.342521 14.724767 12.6796055 14.5 14.0 C 14.331834 12.991004 14.166821 12.000921 14.0 11.0 C 13.125565 11.0 11.9532385 11.0 11.0 11.0 C 11.470948 14.185041 11.979053 16.761595 15.0 17.5 C 13.808263 17.704 12.31202 17.933233 11.0 18.0 C 11.0 18.597118 11.0 19.350538 11.0 20.0 C 12.18758 20.0 13.710728 20.0 15.0 20.0 C 14.461587 23.501387 11.558721 26.672018 10.0 29.5 Z M 19.0 17.0 C 19.597118 17.0 20.350538 17.0 21.0 17.0 C 21.267895 15.465956 22.074348 13.63795 22.5 12.0 C 23.10492 14.903095 22.97388 18.672916 23.0 21.871326 C 23.005318 23.55501 23.006207 25.266338 22.86731 26.936357 C 22.778269 27.57672 22.768078 28.401636 22.788935 29.092604 C 22.674917 29.578611 21.5489 29.505411 21.0 30.0 C 21.0 30.874435 21.0 32.04676 21.0 33.0 C 25.99896 33.0 31.00822 33.0 36.0 33.0 C 34.643433 25.737968 35.0345 18.33969 35.0 11.0 C 29.999811 11.0 24.990553 11.0 20.0 11.0 C 19.866617 13.040984 19.16403 14.973129 19.0 17.0 Z M 26.0 17.0 C 27.665337 17.0 29.339996 17.0 31.0 17.0 C 31.0 16.105146 31.0 14.973657 31.0 14.0 C 29.33827 14.0 27.658125 14.0 26.0 14.0 C 26.0 14.908077 26.0 16.020105 26.0 17.0 Z M 26.0 23.0 C 27.773542 23.0 30.071669 23.0 32.0 23.0 C 32.0 21.818697 32.0 20.277409 32.0 19.0 C 29.988417 19.0 27.994913 19.0 26.0 19.0 C 26.0 20.199335 26.0 21.702293 26.0 23.0 Z M 26.0 30.0 C 27.773542 30.0 30.071669 30.0 32.0 30.0 C 32.0 28.818697 32.0 27.277409 32.0 26.0 C 29.988417 26.0 27.994913 26.0 26.0 26.0 C 26.0 27.199335 26.0 28.702293 26.0 30.0 Z M 65.0 30.578125 C 65.231895 31.587963 65.80421 32.357883 66.5 33.0 C 68.54119 31.784462 71.52172 30.749569 73.36547 28.792334 C 75.35922 27.298117 76.3757 25.096972 77.5 23.0 C 79.19559 24.760952 80.4957 26.773392 82.203964 28.511164 C 83.81877 30.184492 85.78287 31.457436 87.5 33.0 C 88.23784 32.26216 89.19698 31.303019 90.0 30.5 C 88.27167 28.812286 86.234955 27.517607 84.510414 25.842731 C 82.538506 24.0736 81.4219 21.65913 80.0 19.5 C 82.58009 18.757685 86.11081 19.134056 89.0 19.0 C 89.0 18.125565 89.0 16.95324 89.0 16.0 C 85.67359 16.0 82.32637 16.0 79.0 16.0 C 79.0 14.207137 79.0 11.947878 79.0 10.0 C 78.125565 10.0 76.95324 10.0 76.0 10.0 C 76.0 11.792863 76.0 14.052122 76.0 16.0 C 72.67359 16.0 69.32637 16.0 66.0 16.0 C 66.0 16.874435 66.0 18.04676 66.0 19.0 C 68.983795 19.0 72.016205 19.0 75.0 19.0 C 74.18936 24.31684 69.55674 28.034756 65.0 30.0 C 65.0 30.165943 65.0 30.412182 65.0 30.578125 Z M 140.0 31.0 C 140.0 30.125565 140.0 28.95324 140.0 28.0 C 137.08658 28.517828 134.17775 28.929718 131.21912 28.96517 C 128.9257 28.87535 125.7778 29.186296 123.5 28.0 C 122.952194 26.071611 123.764565 24.750648 125.0 23.5 C 124.26216 22.762163 123.30302 21.803019 122.5 21.0 C 121.187965 22.49897 119.29443 24.08102 119.49087 25.958117 C 119.38819 28.121532 120.50571 30.39206 122.62889 30.8484 C 125.766624 32.090015 130.17694 32.048397 133.77425 31.927685 C 135.88416 31.843887 137.96216 31.51636 140.0 31.0 Z M 121.0 13.5 C 121.0 14.01831 121.0 14.525603 121.0 15.0 C 124.67099 15.089302 128.37984 14.817659 132.0 15.5 C 131.31773 15.670566 130.67464 15.831342 130.0 16.0 C 130.10933 17.239016 130.64874 18.230282 131.5 19.0 C 133.78557 16.874132 137.56067 15.082537 141.0 15.0 C 140.84808 13.298986 140.4042 11.654105 140.0 10.0 C 139.10136 10.249707 138.32681 10.436941 137.65369 11.002634 C 137.32483 11.936075 135.40182 11.51778 134.24352 11.888583 C 129.83414 12.144592 125.405876 11.892547 121.0 12.0 C 121.0 12.51831 121.0 13.025603 121.0 13.5 Z M 138.0 12.4375 C 138.35912 12.85035 138.64778 12.7395 139.0 12.5 C 138.64963 12.227404 138.3319 12.111199 138.0 12.4375 Z M 143.5 14.0 C 144.27615 12.161558 143.99605 9.559674 142.0 9.0 C 141.78268 10.853457 142.72806 12.419637 143.5 14.0 Z M 185.0 22.0 C 186.97841 22.513794 188.95312 22.929178 191.0 23.0 C 190.85602 24.58278 190.31033 26.681051 189.10654 28.015482 C 188.03113 29.534815 186.74857 30.82797 186.0 32.5 C 186.44759 32.947582 187.01472 33.514732 187.5 34.0 C 189.54053 32.581734 191.52896 31.12514 192.91539 28.958418 C 193.61603 28.14927 194.13727 27.205172 194.76974 26.362219 C 195.63159 25.057589 196.4907 25.718718 197.5 26.0 C 197.88457 25.21697 198.43646 24.255327 199.0 23.5 C 197.7787 22.734282 196.40082 22.283623 195.0 22.0 C 195.0 20.207138 195.0 17.947878 195.0 16.0 C 194.12556 16.0 192.95323 16.0 192.0 16.0 C 192.0 17.18758 192.0 18.710728 192.0 20.0 C 190.32216 20.0 188.66939 20.0 187.0 20.0 C 186.92914 16.966482 187.20453 13.930022 188.0 11.0 C 183.9972 11.0 179.98793 11.0 176.0 11.0 C 176.0 11.874435 176.0 13.0467615 176.0 14.0 C 178.36198 14.112192 181.50264 13.800718 184.0 14.5 C 183.10365 15.838107 183.00388 17.443264 183.0 19.0 C 177.39252 18.671963 171.47351 24.854994 173.98636 29.789175 C 177.37231 34.211662 182.15298 28.68465 183.72499 25.411366 C 184.34982 24.35258 184.79297 23.198795 185.0 22.0 Z M 176.5 28.0 C 179.2133 27.328495 180.5782 24.491013 181.0 22.0 C 179.45811 22.097816 178.27213 23.170424 177.45123 24.397335 C 176.75917 25.311817 176.00883 26.791842 176.5 28.0 Z " />
</g>
</svg>
