<?xml version="1.0" encoding="UTF-8"?>
<svg xmlns="http://www.w3.org/2000/svg" xmlns:xlink="http://www.w3.org/1999/xlink" width="227.0pt" height="51.0pt" viewBox="0 0 227.0 51.0" version="1.1">

<defs>
<polycosvg ratio="1.000000" offsetx="0.000000" offsety="0.000000" />
</defs><g>
<path style="fill:rgb(100.0%,94.90196%,0.0%);fill-rule:evenodd;stroke:none;" name="Path No.92" d="M 0.0 51.0 C 75.67859 51.0 151.32674 51.0 227.0 51.0 C 227.0 33.994263 227.0 17.005735 227.0 0.0 C 151.32753 0.0 75.66713 0.0 0.0 0.0 C 0.0 17.010614 0.0 34.000282 0.0 51.0 Z M 18.0 15.25 C 19.062256 16.343843 21.352522 15.739715 23.0 16.0 C 22.833544 19.504053 20.409903 22.230799 18.0 24.5 C 19.001509 24.582947 20.68332 23.87063 22.0 24.0 C 22.0 27.326405 22.0 30.673628 22.0 34.0 C 22.597118 34.0 23.350538 34.0 24.0 34.0 C 24.157017 29.171064 23.60196 22.791113 24.723074 17.649473 C 25.340986 16.299791 26.734407 16.512918 27.900358 16.203169 C 31.895668 15.575768 35.979404 15.811309 40.0 15.5 C 35.655674 15.332911 31.330154 15.166544 27.0 15.0 C 27.0 14.125565 27.0 12.9532385 27.0 12.0 C 26.402882 12.0 25.649462 12.0 25.0 12.0 C 25.0 12.874435 25.0 14.0467615 25.0 15.0 C 23.885979 14.999722 22.533075 15.002699 21.326893 15.013391 C 20.345438 15.097562 19.019844 14.891387 18.0 15.25 Z M 32.0 33.25 C 32.67381 33.91831 34.955997 34.02706 35.771225 33.0622 C 37.94381 31.613186 38.043888 28.764174 38.0 26.363802 C 38.0 24.248032 38.0 22.10528 38.0 20.0 C 37.40288 20.0 36.649464 20.0 36.0 20.0 C 36.0 24.338667 36.0 28.672 36.0 33.0 C 34.71566 33.10308 33.13664 32.878563 32.0 33.25 Z M 74.5 34.0 C 74.67352 33.14291 74.90749 32.064182 74.971565 31.112375 C 75.08469 30.21548 74.973465 29.191692 74.0 29.0 C 73.91228 30.691473 74.08741 32.367657 74.5 34.0 Z M 82.5 26.0 C 82.7126 23.402855 82.87809 20.830912 83.422615 18.291521 C 83.78561 16.480038 83.66867 13.742974 82.0 13.0 C 81.89729 17.341366 82.00586 21.690315 82.5 26.0 Z M 90.5 34.0 C 90.67352 33.14291 90.90749 32.064182 90.971565 31.112375 C 91.08469 30.21548 90.973465 29.191692 90.0 29.0 C 89.91228 30.691473 90.08741 32.367657 90.5 34.0 Z M 93.5 17.0 C 93.794556 16.357206 93.984505 15.7018385 94.0 15.0 C 93.10621 15.081524 92.925545 15.796942 93.16667 16.481333 C 93.27451 16.649132 93.401054 16.846033 93.5 17.0 Z M 129.0 31.5 C 128.40135 31.316597 127.66946 31.10561 127.0 31.0 C 127.01907 29.308786 126.92035 27.629147 126.5 26.0 C 126.2902 26.869 125.92697 27.753824 125.0 28.0 C 125.036545 30.04977 126.93433 31.968525 129.0 31.5 Z M 127.0 15.25 C 130.31044 17.972874 136.43161 13.61046 138.5 18.0 C 139.55797 17.285393 140.99031 16.471146 142.0 15.5 C 140.00194 14.66848 137.04097 15.227842 134.55222 15.0 C 132.33923 15.242905 129.362 14.681627 127.0 15.25 Z M 127.0 25.4375 C 127.359116 25.850351 127.64779 25.7395 128.0 25.5 C 127.64963 25.227404 127.33189 25.111198 127.0 25.4375 Z M 130.0 32.3125 C 130.77975 33.052517 131.89015 32.799892 132.88553 32.87983 C 135.92966 32.783665 138.95683 32.612377 142.0 32.5 C 139.7686 32.404026 137.6215 32.311676 135.4061 32.216393 C 133.80281 32.280064 131.7025 31.855593 130.0 32.3125 Z M 187.0 28.5 C 185.88734 28.425491 184.9375 29.820759 183.7186 30.260471 C 182.57364 30.885733 181.27788 31.04127 180.0 31.0 C 179.91666 30.019775 180.08864 28.73713 179.5 28.0 C 178.6458 29.10852 179.70569 30.841326 180.5026 31.646225 C 181.0669 32.0889 181.67378 32.694492 182.53465 32.414787 C 183.10782 31.896547 184.00436 31.504961 184.59012 30.889984 C 185.41077 30.109968 186.19258 29.293324 187.0 28.5 Z M 180.0 26.4375 C 180.35912 26.850351 180.64778 26.7395 181.0 26.5 C 180.64963 26.227404 180.3319 26.111198 180.0 26.4375 Z M 182.0 14.25 C 182.82303 15.190499 184.5896 14.863452 185.9394 14.974255 C 187.30077 15.003664 188.64648 15.004918 190.0 15.0 C 189.88574 19.484848 188.82678 22.041666 185.0 22.5 C 185.78859 22.71395 186.49269 22.907072 187.17134 23.241522 C 187.76393 23.319956 188.0343 24.45192 188.5 25.0 C 188.91118 24.500275 189.26633 23.35588 189.92468 23.257942 C 190.63022 23.023731 191.31323 22.775715 192.0 22.5 C 190.59338 20.320978 191.39194 16.769192 192.0 14.0 C 190.37622 14.00004 188.36142 13.9975605 186.59354 14.007198 C 185.24788 14.182198 183.42047 13.802772 182.0 14.25 Z M 183.0 23.4375 C 183.35912 23.850351 183.64778 23.7395 184.0 23.5 C 183.64963 23.227404 183.3319 23.111198 183.0 23.4375 Z M 187.0 26.4375 C 187.35912 26.850351 187.64778 26.7395 188.0 26.5 C 187.64963 26.227404 187.3319 26.111198 187.0 26.4375 Z M 193.0 23.25 C 193.83228 24.157284 195.65193 23.88709 197.0 24.0 C 196.98882 25.675293 197.07954 27.377247 197.5 29.0 C 198.31192 27.134941 200.05753 25.969263 202.0 25.5 C 199.78972 24.589975 199.99919 21.392262 200.0 19.0 C 199.40288 19.0 198.64946 19.0 198.0 19.0 C 198.0 20.18758 198.0 21.710728 198.0 23.0 C 196.51031 23.164768 194.57613 22.794086 193.0 23.25 Z M 193.0 33.5 C 194.16287 33.819355 195.31735 31.961035 196.0119 31.368572 C 196.48915 30.654829 196.8784 29.805151 196.5 29.0 C 195.93349 31.20098 194.15413 31.948853 193.0 33.5 Z " />

<path style="fill:rgb(22.745098%,0.0%,0.0%);fill-rule:evenodd;stroke:none;" name="Path No.93" d="M 34.0 20.25 C 34.70348 22.229235 34.542786 24.15533 34.51608 26.192944 C 34.38321 28.063015 34.940666 30.60785 34.0 32.5 C 35.012875 32.888264 36.004242 33.01476 37.0 33.0 C 37.0 28.661333 37.0 24.328 37.0 20.0 C 35.98764 20.0 35.007435 20.0 34.0 20.0 C 34.0 20.07176 34.0 20.17824 34.0 20.25 Z " />

<path style="fill:rgb(40.0%,67.45098%,0.0%);fill-rule:evenodd;stroke:none;" name="Path No.94" d="M 83.0 18.0 C 83.90332 17.987516 85.13064 18.020498 86.0 17.5 C 85.3496 16.827066 85.39396 16.061142 86.0 15.5 C 85.075165 15.057836 84.00997 14.991614 83.0 15.0 C 83.0 15.891848 83.0 17.029495 83.0 18.0 Z M 148.0 15.0 C 148.59712 15.0 149.35054 15.0 150.0 15.0 C 149.72339 14.086476 149.54497 12.85442 149.1256 11.899942 C 148.66147 11.033618 147.81606 10.960799 147.0 11.0 C 147.01276 12.410515 147.86185 13.627363 148.0 15.0 Z " />

<path style="fill:rgb(56.470592%,21.176472%,0.0%);fill-rule:evenodd;stroke:none;" name="Path No.95" d="M 145.0 14.0 C 145.0 13.394116 145.0 12.65726 145.0 12.0 C 144.33334 12.0 143.6564 12.0 143.0 12.0 C 142.80646 13.549063 143.73422 14.15338 145.0 14.0 Z M 148.5 15.0 C 149.12932 14.112986 148.99405 13.02094 149.0 12.0 C 148.39613 12.0 147.65001 12.0 147.0 12.0 C 146.87355 13.377613 147.58313 14.218336 148.5 15.0 Z " />

<path style="fill:rgb(0.0%,0.0%,0.0%);fill-rule:evenodd;stroke:none;" name="Path No.96" d="M 16.0 24.59375 C 16.236025 25.59826 16.808813 26.361078 17.5 27.0 C 18.33402 26.33303 19.527887 25.625114 20.5 25.0 C 21.308607 27.901209 20.813349 31.762945 21.0 35.0 C 22.18758 35.0 23.710728 35.0 25.0 35.0 C 25.0 33.207138 25.0 30.947878 25.0 29.0 C 28.657553 29.0 32.34274 29.0 36.0 29.0 C 36.0 29.874435 36.0 31.04676 36.0 32.0 C 34.322166 32.0 32.669388 32.0 31.0 32.0 C 31.0 32.874435 31.0 34.04676 31.0 35.0 C 33.029682 34.89664 35.997803 35.084167 37.512283 33.284348 C 39.0777 31.908142 38.73527 28.82216 38.99962 26.491787 C 39.000313 24.000492 38.999817 21.48173 39.0 19.0 C 36.596752 19.0 34.232475 19.0 31.83061 19.0 C 29.791664 18.851858 27.099783 19.18918 25.0 18.5 C 27.118645 16.852789 29.899355 17.09225 32.51314 17.00032 C 35.355877 16.999657 38.166294 17.000237 41.0 17.0 C 41.0 16.125565 41.0 14.9532385 41.0 14.0 C 36.661335 14.0 32.328 14.0 28.0 14.0 C 28.0 13.125565 28.0 11.9532385 28.0 11.0 C 26.81242 11.0 25.289272 11.0 24.0 11.0 C 24.0 11.874435 24.0 13.0467615 24.0 14.0 C 21.91649 14.0 19.263714 14.0 17.0 14.0 C 17.0 14.874435 17.0 16.04676 17.0 17.0 C 18.682728 17.01041 20.386929 16.99264 22.0 17.5 C 21.19147 18.597841 20.323545 20.049782 19.27078 21.094696 C 18.348894 22.43867 16.849876 23.261091 16.0 24.59375 Z M 25.0 21.5 C 25.570732 23.18072 28.052944 22.919968 29.474108 23.0 C 31.653955 23.0 33.829094 23.0 36.0 23.0 C 36.0 22.402882 36.0 21.649462 36.0 21.0 C 32.337124 21.0 28.657543 21.0 25.0 21.0 C 25.0 21.143518 25.0 21.356482 25.0 21.5 Z M 25.0 25.5 C 25.570732 27.18072 28.052944 26.919968 29.474108 27.0 C 31.653955 27.0 33.829094 27.0 36.0 27.0 C 36.0 26.402882 36.0 25.649462 36.0 25.0 C 32.337124 25.0 28.657543 25.0 25.0 25.0 C 25.0 25.143518 25.0 25.356482 25.0 25.5 Z M 70.0 25.5 C 70.03066 26.049606 70.18602 26.557516 70.5 27.0 C 78.6613 27.0 86.84403 27.0 95.0 27.0 C 95.0 26.402882 95.0 25.649462 95.0 25.0 C 91.32856 25.0 87.67115 25.0 84.0 25.0 C 84.0 24.402882 84.0 23.649462 84.0 23.0 C 87.32641 23.0 90.67363 23.0 94.0 23.0 C 94.0 22.402882 94.0 21.649462 94.0 21.0 C 90.67359 21.0 87.32637 21.0 84.0 21.0 C 84.0 20.402882 84.0 19.649462 84.0 19.0 C 86.08351 19.0 88.73629 19.0 91.0 19.0 C 91.0 18.402882 91.0 17.649462 91.0 17.0 C 88.66828 16.833448 86.32565 16.666119 84.0 16.5 C 85.74717 16.359379 87.47598 16.222904 89.22467 16.31515 C 89.95991 16.481031 90.92255 16.058012 91.546814 16.38555 C 91.42462 16.961838 91.77161 17.495365 92.0 18.0 C 92.874435 18.0 94.04676 18.0 95.0 18.0 C 95.0 16.81242 95.0 15.289272 95.0 14.0 C 92.59892 13.967533 90.22769 14.065405 87.838455 13.901187 C 84.96393 13.9042845 82.3648 11.526514 80.621956 13.472763 C 77.51383 14.11644 74.18711 14.005014 71.0 14.0 C 71.0 15.18758 71.0 16.710728 71.0 18.0 C 71.597115 18.0 72.35054 18.0 73.0 18.0 C 73.0 17.402882 73.0 16.649462 73.0 16.0 C 75.675644 16.083971 78.3387 16.33213 81.0 16.5 C 78.66828 16.666552 76.32565 16.833881 74.0 17.0 C 74.0 17.597118 74.0 18.350538 74.0 19.0 C 76.08351 19.0 78.73629 19.0 81.0 19.0 C 81.0 19.597118 81.0 20.350538 81.0 21.0 C 78.010056 21.0 74.977646 21.0 72.0 21.0 C 72.0 21.597118 72.0 22.350538 72.0 23.0 C 74.983795 23.0 78.016205 23.0 81.0 23.0 C 81.0 23.597118 81.0 24.350538 81.0 25.0 C 78.98206 25.001205 76.99705 24.995626 74.9898 25.009504 C 74.23367 25.014168 73.2597 25.023533 72.43566 25.042908 C 71.6895 25.035873 70.6411 24.917645 70.0 25.5 Z M 73.0 35.0 C 79.28668 33.69652 85.72522 33.702366 92.0 35.0 C 92.0 32.916492 92.0 30.263714 92.0 28.0 C 85.662636 28.0 79.3267 28.0 73.0 28.0 C 73.0 30.335262 73.0 32.668594 73.0 35.0 Z M 76.0 30.5 C 76.905266 32.46943 80.116516 31.847454 82.26843 32.0 C 84.521935 32.0 86.76186 32.0 89.0 32.0 C 89.0 31.402882 89.0 30.649462 89.0 30.0 C 84.65516 30.0 80.334175 30.0 76.0 30.0 C 76.0 30.143518 76.0 30.356482 76.0 30.5 Z M 146.0 32.5 C 145.39224 31.730564 145.06772 30.899147 145.0 30.0 C 140.07417 31.229483 133.37865 31.381727 128.0 30.0 C 127.98762 28.219578 128.69914 26.697233 130.0 25.5 C 130.0 24.981691 130.0 24.474396 130.0 24.0 C 129.03719 23.963865 128.20515 23.656206 127.5 23.0 C 126.5968 24.280954 124.31128 26.274893 124.47591 28.30884 C 124.36738 30.557865 125.9509 32.311993 128.08984 33.028126 C 131.49327 34.14121 136.17989 34.08106 140.01828 33.821987 C 142.07639 33.600094 144.12927 33.360744 146.0 32.5 Z M 126.0 15.5 C 126.0 16.018309 126.0 16.525604 126.0 17.0 C 129.67099 17.089302 133.37984 16.81766 137.0 17.5 C 136.31773 17.670565 135.67464 17.83134 135.0 18.0 C 135.10933 19.239016 135.64874 20.230282 136.5 21.0 C 139.2037 18.799267 142.46404 17.131697 146.0 17.0 C 145.76877 15.488934 145.56052 13.374483 144.5 12.0 C 142.0874 14.176596 138.66898 13.9618435 135.56586 14.0 C 132.37073 14.0 129.18135 14.0 126.0 14.0 C 126.0 14.51831 126.0 15.025603 126.0 15.5 Z M 143.0 14.4375 C 143.35912 14.85035 143.64778 14.7395 144.0 14.5 C 143.64963 14.227404 143.3319 14.111199 143.0 14.4375 Z M 147.0 11.25 C 147.1931 12.668229 148.14952 14.3837385 148.0 16.0 C 148.59712 16.0 149.35054 16.0 150.0 16.0 C 149.58293 14.100679 148.94699 11.670908 147.0 11.0 C 147.0 11.071759 147.0 11.178241 147.0 11.25 Z M 190.0 24.0 C 191.97841 24.513794 193.95312 24.929178 196.0 25.0 C 195.83354 28.504053 193.4099 31.230799 191.0 33.5 C 191.73784 34.23784 192.69698 35.196983 193.5 36.0 C 194.9173 34.61498 196.65335 32.823418 197.86412 31.03141 C 198.44232 30.192438 199.10002 29.406544 199.59639 28.519474 C 200.4056 27.088047 201.46136 27.49927 202.5 28.0 C 202.84119 27.180542 203.35535 26.216387 204.0 25.5 C 203.18306 24.647373 202.18451 24.087788 201.0 24.0 C 201.0 22.207138 201.0 19.947878 201.0 18.0 C 199.81242 18.0 198.28928 18.0 197.0 18.0 C 197.0 19.18758 197.0 20.710728 197.0 22.0 C 195.17767 22.039467 193.44576 21.607748 192.0 20.5 C 192.3094 18.007742 192.77649 15.500199 193.0 13.0 C 188.9972 13.0 184.98793 13.0 181.0 13.0 C 181.0 13.874435 181.0 15.0467615 181.0 16.0 C 183.66586 16.0 186.33717 16.0 189.0 16.0 C 188.63281 17.465696 188.1533 19.364563 188.0 21.0 C 182.39252 20.671963 176.47351 26.854994 178.98636 31.789175 C 182.37231 36.211662 187.15298 30.68465 188.72499 27.411366 C 189.34982 26.35258 189.79297 25.198795 190.0 24.0 Z M 181.5 30.0 C 184.07872 29.44635 185.58755 26.338596 187.0 24.5 C 184.88074 23.734436 182.4802 26.03133 181.72899 27.728186 C 181.21877 28.504435 181.12706 29.220322 181.5 30.0 Z " />

<path style="fill:rgb(40.0%,53.333336%,0.0%);fill-rule:evenodd;stroke:none;" name="Path No.97" d="M 143.0 15.4375 C 143.35912 15.85035 143.64778 15.7395 144.0 15.5 C 143.64963 15.227404 143.3319 15.111199 143.0 15.4375 Z " />

<path style="fill:rgb(71.37255%,38.039215%,0.0%);fill-rule:evenodd;stroke:none;" name="Path No.98" d="M 144.0 16.4375 C 144.35912 16.850351 144.64778 16.7395 145.0 16.5 C 144.64963 16.227404 144.3319 16.111198 144.0 16.4375 Z " />
</g>
</svg>
